<svg width="42" height="42" viewBox="0 0 42 42" fill="none" xmlns="http://www.w3.org/2000/svg">
<path d="M20.1632 2.84158C19.9663 3.00892 19.8744 3.05158 19.694 3.05158C19.5824 3.05158 19.4479 3.08111 19.3166 3.13689C19.041 3.25173 18.8179 3.3108 18.7687 3.28126C18.6801 3.22548 18.2141 3.4158 18.0796 3.56017C18.0337 3.60939 17.9188 3.70783 17.8269 3.77673C17.7285 3.84892 17.6465 3.9408 17.6334 3.98673C17.6235 4.03267 17.6301 4.1672 17.653 4.29189C17.676 4.4133 17.7121 4.6233 17.7384 4.75783C17.7941 5.07283 17.7974 5.36814 17.7482 5.67658C17.6859 6.0572 17.6957 6.14251 17.8105 6.35908L17.9123 6.55923L17.7777 6.55267C17.6334 6.54611 17.6399 6.54283 17.5185 6.80533C17.4759 6.90048 17.3512 7.06126 17.2199 7.18923C17.0362 7.37298 16.964 7.41892 16.8098 7.46486C16.7048 7.49439 16.4751 7.58954 16.3012 7.68142C15.8943 7.88486 15.5366 8.00626 15.3299 8.00626C15.1855 8.00626 15.1396 8.02595 14.923 8.18345C14.6868 8.35736 14.2044 8.59689 14.0929 8.59689C14.0634 8.59689 13.9977 8.63626 13.9485 8.68876C13.873 8.76423 13.8533 8.81673 13.8369 9.01361C13.8238 9.14158 13.7976 9.28923 13.7812 9.33845C13.7385 9.44673 13.7287 9.63704 13.7615 9.66986C13.7746 9.68626 13.8665 9.70267 13.9649 9.71251L14.1454 9.72892L13.8763 9.89298C13.1905 10.313 13.1774 10.3163 12.8427 10.208C12.7344 10.1752 12.4523 10.1292 12.216 10.1095C11.9371 10.0866 11.714 10.0505 11.5926 10.0045C11.1726 9.85361 11.0544 9.85033 10.8346 9.9783C10.7001 10.057 10.6968 10.057 10.6968 9.96845C10.6968 9.89626 10.5163 9.60095 10.3719 9.44345L10.2932 9.35486L10.4179 9.24001C10.5393 9.12517 10.5426 9.12189 10.5229 8.93486C10.4999 8.70517 10.4277 8.6297 10.1685 8.56736C9.9946 8.5247 9.98803 8.52798 9.74522 8.64282C9.61069 8.70845 9.47616 8.76095 9.44335 8.76095C9.41053 8.76095 9.34491 8.71501 9.29569 8.65923C9.15788 8.50501 9.02335 8.45579 8.84288 8.50173C8.76413 8.52142 8.67225 8.53126 8.646 8.51814C8.56397 8.48861 8.43272 8.55423 8.43272 8.6297C8.43272 8.6658 8.49835 8.76095 8.5771 8.84298C8.78381 9.0497 8.79366 9.06939 8.74116 9.28267C8.67553 9.55829 8.6821 9.64033 8.79038 9.76173C8.86585 9.84705 8.88881 9.91267 8.9085 10.0866C8.92819 10.2966 8.93475 10.3064 9.07585 10.4049C9.30225 10.5591 9.3121 10.5853 9.33835 11.1727C9.36132 11.6878 9.36132 11.6944 9.45319 11.7797C9.54507 11.8617 9.54507 11.8617 9.50897 12.0783C9.45647 12.3867 9.5221 12.7345 9.65006 12.8461L9.74194 12.9216L9.58772 12.9413C9.50241 12.9511 9.39085 12.961 9.33506 12.961C9.28256 12.9577 9.19069 12.9839 9.13491 13.0135C9.06272 13.0528 8.9971 13.0627 8.91507 13.0463C8.79366 13.0233 8.79366 13.02 8.79366 12.8658C8.79366 12.6853 8.76413 12.6492 8.57381 12.6066C8.38678 12.5639 8.28835 12.6164 8.27522 12.7641C8.2621 12.892 8.23913 12.915 8.05538 12.9642C7.98319 12.9839 7.8946 13.02 7.85522 13.043C7.7896 13.0856 7.78631 13.0824 7.7896 12.9708C7.79288 12.8199 7.71741 12.7641 7.59928 12.8297C7.52381 12.8691 7.50741 12.8658 7.47131 12.8133C7.43194 12.7641 7.39913 12.7575 7.26788 12.7805C7.13006 12.8002 7.08084 12.8297 6.92006 12.9938C6.81834 13.0988 6.70678 13.23 6.67397 13.2858C6.64116 13.3416 6.60506 13.3875 6.59194 13.3875C6.58209 13.3875 6.55256 13.3022 6.52959 13.2005C6.49678 13.0495 6.46069 12.9839 6.336 12.8592C6.24413 12.7674 6.14241 12.6131 6.0735 12.4655C5.87662 12.0324 5.89959 12.0586 5.76506 12.0553C5.66006 12.0553 5.63053 12.0356 5.57803 11.9503C5.51241 11.8453 5.37787 11.806 5.33194 11.8781C5.32209 11.8945 5.26303 11.911 5.20725 11.911C5.08256 11.911 4.91194 12.0061 4.83647 12.1242C4.76756 12.2292 4.58053 12.2424 4.52803 12.1406C4.46897 12.0324 4.37053 11.9963 4.28522 12.0553C4.21959 12.098 4.20647 12.1374 4.19334 12.3474C4.1835 12.4786 4.16709 12.6066 4.15397 12.6263C4.13756 12.6525 4.02928 12.6656 3.85865 12.6656C3.6224 12.6656 3.57647 12.6755 3.47803 12.7477C3.33694 12.8527 3.22865 12.856 3.19584 12.7542C3.14334 12.5803 3.00225 12.5213 2.84475 12.6066C2.80537 12.6263 2.69053 12.705 2.59209 12.7805C2.41162 12.9216 2.40834 12.9216 2.33287 12.8592C2.29022 12.8231 2.23115 12.7969 2.19834 12.7969C2.14584 12.7969 1.43381 13.1447 1.25662 13.2563C1.18772 13.2989 0.853027 13.9191 0.853027 14.0044C0.853027 14.1225 1.26318 14.2177 1.43053 14.1324C1.48303 14.1061 1.59459 14.0766 1.6799 14.0667C1.86365 14.0405 1.92272 14.0897 1.8735 14.2177C1.84725 14.2833 1.81443 14.303 1.71928 14.3128C1.60772 14.3227 1.59459 14.3325 1.55522 14.4703C1.5224 14.5786 1.5224 14.6245 1.54865 14.6606C1.611 14.7361 1.76193 14.7985 1.88006 14.7985C1.96537 14.7985 2.02772 14.8313 2.13272 14.9199L2.27053 15.0445L1.90303 15.0478C1.59131 15.0511 1.5224 15.061 1.45022 15.1167C1.38459 15.1659 1.36162 15.2119 1.36162 15.2939C1.36162 15.4022 1.36818 15.4088 1.5585 15.4711C1.7849 15.5466 1.82428 15.5695 1.93256 15.6909C2.00475 15.773 2.00803 15.7894 1.97193 15.9305C1.92928 16.1044 1.98178 16.2783 2.10318 16.3406C2.20818 16.3997 2.56584 16.3636 2.70037 16.2849C2.75944 16.2488 2.90381 16.2094 3.01865 16.1963C3.14006 16.1831 3.25819 16.147 3.29428 16.1175C3.3435 16.0716 3.3599 16.0716 3.37303 16.1044C3.39928 16.1799 3.58303 16.3735 3.67162 16.4194C3.71756 16.4456 3.84553 16.4752 3.95381 16.4883C4.19662 16.5178 4.31803 16.5769 4.341 16.6753C4.37381 16.8 4.60678 17.0067 4.71506 17.0002C5.12194 16.9838 5.14491 16.987 5.27616 17.1281C5.39428 17.2495 5.41725 17.2594 5.58131 17.2594C5.67975 17.2594 5.80772 17.2463 5.86678 17.2299C5.94881 17.2036 5.97178 17.2069 5.97178 17.2463C5.97178 17.2725 6.02428 17.3513 6.08991 17.4202L6.20475 17.5514L6.64116 17.5317C7.03163 17.5153 7.07756 17.5186 7.09725 17.5678C7.11038 17.6006 7.09725 17.6695 7.06772 17.722C6.98897 17.8795 6.96928 18.2405 7.03491 18.3685C7.12678 18.5456 7.19569 18.5719 7.51397 18.5424C7.66819 18.5292 7.81913 18.5063 7.85522 18.4899C7.90772 18.4669 7.91428 18.4734 7.90116 18.5588C7.89131 18.6113 7.86506 18.6966 7.8421 18.7524C7.81256 18.8278 7.80928 18.8836 7.83881 18.9853C7.87163 19.1034 7.89131 19.1264 7.98647 19.1428C8.11116 19.1658 8.16038 19.2117 8.17022 19.3102C8.18335 19.425 8.1735 19.4513 8.10788 19.4742C8.07506 19.4841 8.00616 19.53 7.96022 19.5727C7.85194 19.6744 7.84866 19.8056 7.95694 20.0649C8.01928 20.2224 8.06522 20.2814 8.18663 20.3602C8.30475 20.4389 8.37366 20.521 8.50163 20.7539C8.59022 20.9147 8.67881 21.1083 8.69522 21.1805C8.72803 21.3347 8.8921 21.4955 9.19725 21.6727C9.30882 21.7383 9.4696 21.8367 9.55491 21.8925C9.64678 21.9516 9.77147 21.9975 9.85678 22.0074C9.98147 22.0238 10.0077 22.0402 10.0438 22.1222C10.1357 22.342 10.244 22.3617 10.5393 22.2141L10.7362 22.1124L10.7165 22.2009C10.7033 22.2502 10.664 22.3322 10.6279 22.3814C10.5491 22.493 10.5491 22.5619 10.6279 22.7424C10.7263 22.972 10.7788 23.2542 10.7329 23.3067C10.7132 23.333 10.7001 23.4347 10.7033 23.5364C10.7066 23.6381 10.7001 23.73 10.6869 23.7431C10.6476 23.7858 10.559 23.6709 10.5032 23.5069C10.4671 23.4052 10.408 23.3166 10.3293 23.2542C10.2112 23.1591 10.2046 23.1591 10.1226 23.2116C10.011 23.287 10.0176 23.3986 10.1554 23.6644C10.2144 23.7858 10.2768 23.9367 10.2899 24.0024C10.3063 24.0975 10.3227 24.1172 10.3949 24.1172H10.4769L10.408 24.1927C10.3227 24.2845 10.3194 24.3403 10.3949 24.4322C10.4704 24.5241 10.5458 24.5602 10.7493 24.6061C10.8838 24.6389 10.9494 24.6816 11.0971 24.8325C11.3202 25.0655 11.4548 25.2394 11.5466 25.4199C11.6188 25.5609 11.7304 25.9842 11.7008 26.0105C11.6943 26.017 11.6779 25.9744 11.6648 25.9153C11.6516 25.8563 11.609 25.748 11.5663 25.6758C11.4843 25.5314 11.0512 25.1114 10.8182 24.9474C10.5688 24.7734 10.5491 24.8259 10.4966 25.7742C10.4802 26.0794 10.4507 26.5453 10.431 26.8078C10.408 27.0703 10.3949 27.3853 10.3949 27.5067C10.3982 27.6741 10.3818 27.7659 10.3326 27.8644C10.2046 28.117 10.3063 28.2188 10.559 28.0908C10.7066 28.0153 10.7296 28.0252 10.7296 28.1597C10.7296 28.2319 10.7165 28.2516 10.6574 28.2516C10.6148 28.2516 10.5229 28.2877 10.4507 28.327C10.326 28.3959 10.3194 28.4124 10.2965 28.5961C10.2833 28.7044 10.2505 28.8947 10.2243 29.0227C10.198 29.1474 10.1587 29.4886 10.139 29.7774C10.0996 30.3745 9.98475 30.9947 9.75178 31.8413C9.54507 32.5959 9.36132 32.9011 9.05616 32.9897C8.91178 33.0324 8.9085 33.0389 8.91507 33.157C8.92819 33.3375 8.97413 33.3769 9.13819 33.3506C9.276 33.3309 9.27928 33.3342 9.31538 33.4458C9.33835 33.5114 9.37116 33.5705 9.39413 33.577C9.45975 33.6 9.54835 33.5377 9.54835 33.4688C9.54835 33.4327 9.55163 33.4031 9.55819 33.4031C9.56147 33.4031 9.66319 33.4359 9.78132 33.4786C9.98147 33.5508 9.9946 33.5606 9.97163 33.6361C9.93882 33.7641 9.87319 33.8724 9.77147 33.9675C9.72225 34.0134 9.6796 34.0692 9.6796 34.0889C9.6796 34.1447 9.89944 34.3547 9.9585 34.3547C9.98803 34.3547 10.0537 34.3219 10.1062 34.2858L10.2013 34.2136L10.3293 34.3186C10.4244 34.3908 10.4933 34.4203 10.5852 34.4203C10.6673 34.4203 10.7329 34.4433 10.7821 34.4892C10.8248 34.5319 10.9101 34.5647 10.9823 34.5713C11.0512 34.5745 11.1726 34.6041 11.2513 34.6303C11.3301 34.6599 11.4416 34.6828 11.5007 34.6828C11.5762 34.6828 11.6418 34.7156 11.7435 34.8141C11.819 34.8895 11.9141 34.9453 11.9568 34.9453C12.0618 34.9453 12.1307 35.0109 12.1635 35.1422C12.1996 35.2866 12.2915 35.3063 12.4227 35.198C12.4949 35.1356 12.5441 35.1225 12.6393 35.1356C12.7279 35.1455 12.7869 35.1291 12.8591 35.0799L12.9576 35.0109L13.1315 35.1947C13.2266 35.2964 13.3119 35.3883 13.3218 35.4014C13.3316 35.4145 13.3808 35.4572 13.4333 35.4966C13.5646 35.595 13.7779 35.5917 14.0076 35.4867L14.188 35.4014L14.3226 35.5359C14.3948 35.6081 14.4702 35.6672 14.4899 35.6672C14.5096 35.6672 14.5588 35.6311 14.5982 35.5884C14.6638 35.5195 14.6868 35.513 14.8049 35.5425C14.8804 35.5589 15.0576 35.5655 15.1987 35.5589C15.4284 35.5491 15.4677 35.5359 15.553 35.4539C15.658 35.3522 15.681 35.2209 15.6187 35.0569C15.599 35.0077 15.5891 34.965 15.5957 34.9584C15.6023 34.9519 15.7237 34.9945 15.868 35.0569C16.0255 35.1225 16.2093 35.1717 16.3405 35.1849C16.6227 35.2111 16.6424 35.2209 16.708 35.3719C16.7507 35.4769 16.7802 35.5031 16.8491 35.5031C16.8984 35.5031 16.9574 35.4802 16.9837 35.4539C17.0296 35.4113 17.0493 35.4145 17.1641 35.4703C17.233 35.5064 17.2921 35.5589 17.2921 35.5819C17.2921 35.6081 17.3315 35.6738 17.3774 35.7295C17.4857 35.8608 17.6202 35.8674 17.7154 35.7459C17.7744 35.6705 17.7909 35.6639 17.8401 35.7033C17.8696 35.7295 17.9582 35.7492 18.0369 35.7492C18.178 35.7492 18.1846 35.7525 18.2305 35.8805C18.2666 35.9855 18.2699 36.0281 18.2371 36.0872C18.1846 36.1889 18.2371 36.2677 18.3618 36.2709C18.4143 36.2742 18.5357 36.3234 18.6309 36.3858C18.7687 36.4744 18.8015 36.5105 18.8015 36.5859C18.8015 36.7434 18.8737 36.7697 19.1066 36.7008C19.2182 36.668 19.3888 36.6056 19.484 36.5597L19.6612 36.4809L19.858 36.5827C20.0123 36.6614 20.1009 36.6844 20.2387 36.6844C20.3929 36.6844 20.4355 36.6975 20.5143 36.773L20.6062 36.8616L20.698 36.7894C20.8752 36.6483 21.1377 36.5138 21.374 36.4383C21.6102 36.3628 21.6266 36.3628 21.853 36.4088C22.2205 36.4875 22.2698 36.4252 22.0532 36.1659C21.8301 35.8969 21.7776 35.6311 21.8727 35.2603C21.9252 35.0536 21.922 34.7288 21.8596 34.3547C21.8301 34.1775 21.8301 34.1709 21.9482 34.0397C22.063 33.9084 22.1221 33.81 22.1582 33.6952C22.1713 33.6591 22.2304 33.6361 22.3452 33.623C22.4404 33.6099 22.5421 33.5803 22.5749 33.5508C22.6044 33.5245 22.6799 33.5016 22.739 33.5016C22.8309 33.5016 22.8834 33.4655 23.0573 33.2883C23.2148 33.1242 23.264 33.052 23.264 32.9799C23.264 32.8749 23.3723 32.8092 23.4379 32.8749C23.497 32.9339 23.6413 32.9142 23.7168 32.8355C23.7562 32.7961 23.8218 32.6977 23.8645 32.6156C23.917 32.5172 23.9695 32.4647 24.0318 32.4483C24.0843 32.4352 24.1499 32.3991 24.1827 32.3695C24.2352 32.3203 24.2418 32.3269 24.2812 32.4188C24.3074 32.4778 24.373 32.5467 24.442 32.5828C24.5076 32.6156 24.6027 32.6878 24.6552 32.7436C24.7602 32.8552 24.9243 32.8814 24.9571 32.7961C24.9735 32.7567 24.9899 32.7633 25.0424 32.8322C25.1737 32.9963 25.3738 32.9963 25.5018 32.8355L25.5609 32.7633V32.8519C25.5609 32.9667 25.6527 33.0192 25.761 32.9634C25.8299 32.9274 25.8562 32.9372 25.9907 33.0324C26.3549 33.2916 26.5649 33.285 26.6502 33.0061C26.6699 32.9339 26.6962 32.8781 26.7093 32.8781C26.7421 32.8781 26.8405 32.993 26.8405 33.0324C26.8405 33.1275 26.9685 33.1734 27.336 33.2063C27.5395 33.2227 27.7363 33.2391 27.7691 33.2391C27.8446 33.2391 27.8413 33.3113 27.756 33.472C27.6805 33.6263 27.6838 33.7739 27.7659 33.7903C27.7987 33.7969 27.9201 33.7641 28.0382 33.7149C28.2843 33.6164 28.3565 33.6263 28.4385 33.7706C28.4713 33.8231 28.5665 33.9052 28.6485 33.9445C28.8191 34.0331 29.2063 34.1119 29.2949 34.0758C29.3802 34.0397 30.3351 33.9544 30.591 33.9609C30.7584 33.9642 30.8371 33.9511 30.9027 33.9052C30.9487 33.8724 31.0635 33.81 31.1554 33.7641C31.244 33.7181 31.3195 33.6656 31.3227 33.6492C31.3227 33.6295 31.3359 33.5409 31.349 33.4524C31.3687 33.3145 31.3884 33.2784 31.4704 33.2292C31.5295 33.1964 31.5918 33.1209 31.6213 33.0422C31.6607 32.9405 31.6902 32.9109 31.7493 32.9109C31.8379 32.9109 32.0774 32.7108 32.107 32.6124C32.1201 32.5795 32.1923 32.5238 32.271 32.4877C32.4876 32.3925 32.6713 32.2317 32.7566 32.0611C32.8256 31.9266 32.8452 31.9102 32.9568 31.9003C33.1274 31.8872 33.5966 31.6411 33.6426 31.5427C33.6688 31.4869 33.6688 31.4245 33.6426 31.3327C33.6098 31.2113 33.6163 31.1916 33.6852 31.1128C33.9445 30.8241 34.0888 30.6338 34.1315 30.5189C34.1807 30.3909 34.1807 30.3811 34.1151 30.2991C34.0757 30.2466 34.0462 30.1613 34.0462 30.0759C34.0429 29.9677 34.0298 29.9381 33.9773 29.9316C33.9379 29.925 33.8756 29.9578 33.8296 30.007C33.7706 30.0694 33.7213 30.0891 33.6163 30.0891C33.5441 30.0891 33.4687 30.1022 33.449 30.1219C33.3899 30.1809 33.2193 30.1678 33.1209 30.0989C33.0684 30.0628 32.9666 30.0136 32.8945 29.9906C32.8223 29.9677 32.691 29.9152 32.5991 29.8758C32.5106 29.8364 32.3957 29.7839 32.3432 29.7642C32.294 29.7445 32.2382 29.6888 32.2218 29.6395C32.2021 29.587 32.1595 29.4952 32.1234 29.4295C32.0873 29.3639 32.0577 29.2589 32.0577 29.1999C32.0577 29.1375 32.0282 29.0292 31.9954 28.957C31.9396 28.8324 31.9396 28.8225 31.9921 28.7438C32.0216 28.6978 32.0807 28.5699 32.1234 28.455C32.1956 28.2549 32.1988 28.2516 32.3235 28.2516C32.4416 28.2516 32.4515 28.245 32.4515 28.1564C32.4515 28.1006 32.4154 28.0186 32.3695 27.9628C32.3104 27.8939 32.2874 27.825 32.2874 27.7331C32.2874 27.5724 32.2546 27.5428 31.9527 27.4509C31.7263 27.382 31.7099 27.3722 31.641 27.2344C31.6016 27.1524 31.5688 27.0506 31.5688 27.008C31.5656 26.9653 31.513 26.8734 31.4507 26.8045C31.303 26.6405 31.303 26.5781 31.4441 26.5781C31.5065 26.5781 31.5656 26.5683 31.5754 26.5552C31.5885 26.542 31.6804 26.5388 31.7788 26.542C31.9691 26.5519 31.9954 26.5355 32.1824 26.2894C32.2481 26.1975 32.2645 26.1942 32.3531 26.227C32.4318 26.2566 32.4581 26.2533 32.5138 26.2041C32.6156 26.1089 32.6943 25.8792 32.6681 25.7283C32.6549 25.6364 32.6615 25.5905 32.6976 25.5609C32.7862 25.4855 32.7501 25.4034 32.5466 25.2361C32.4384 25.1442 32.3366 25.0688 32.3202 25.0688C32.3071 25.0688 32.2776 25.0228 32.2513 24.967C32.2185 24.885 32.2185 24.8424 32.2481 24.7636C32.2973 24.6324 32.2316 24.5241 32.084 24.4847C31.9954 24.4617 31.9495 24.4125 31.8379 24.2222L31.7001 23.9892L31.7723 23.9367C31.8116 23.9105 31.8641 23.8875 31.8871 23.8875C31.956 23.8875 32.3531 23.4938 32.3531 23.4249C32.3531 23.3231 32.2284 23.0738 32.1595 23.0377C32.1234 23.018 32.0512 23.0016 31.9987 23.0016C31.9035 23.0016 31.9035 23.0016 31.9298 22.8605C31.9691 22.6505 31.9691 22.6406 31.8379 22.5849C31.769 22.5586 31.7066 22.5291 31.7001 22.5225C31.6935 22.5159 31.7427 22.447 31.8084 22.365C31.9626 22.178 31.9626 22.0664 31.8182 21.9253C31.7329 21.8433 31.7099 21.7974 31.7231 21.7284C31.7395 21.6169 31.7099 21.5906 31.4212 21.4758C31.1685 21.3774 31.0799 21.3806 30.7977 21.4889C30.7059 21.525 30.5877 21.5644 30.5385 21.5742C30.486 21.5841 30.3745 21.6595 30.2891 21.7383C30.1054 21.9089 30.0463 21.9188 29.9709 21.7941C29.938 21.7449 29.879 21.6759 29.8363 21.6366L29.7576 21.5677L29.8757 21.397C29.9971 21.2133 30.0102 21.1641 29.9577 21.0656C29.9315 21.0164 29.961 20.9836 30.1448 20.8556C30.3318 20.7277 30.5549 20.5045 30.6402 20.3602C30.6534 20.3372 30.7091 20.3011 30.7616 20.2749C30.8437 20.2355 30.8634 20.2059 30.8699 20.101C30.8798 19.973 30.7945 19.7203 30.7387 19.7203C30.7255 19.7203 30.7124 19.7072 30.7124 19.6941C30.7124 19.6809 30.8371 19.6284 30.988 19.5792C31.1915 19.5136 31.3162 19.448 31.4507 19.3364C31.6213 19.1953 31.6345 19.1724 31.6213 19.0772C31.6049 18.9853 31.6213 18.9591 31.7362 18.8672C31.8149 18.8049 31.9035 18.6835 31.956 18.5784C32.0906 18.293 32.0938 18.2897 32.2448 18.2503C32.3596 18.2175 32.3859 18.1978 32.3859 18.1322C32.3859 18.0436 32.2743 17.9583 32.1234 17.9255C32.0085 17.9025 32.0118 17.9156 32.0741 17.7581C32.1529 17.5678 32.2809 17.4858 32.4646 17.5088C32.6254 17.5317 32.6451 17.5547 32.5663 17.6203C32.504 17.6728 32.504 17.7319 32.5631 17.7811C32.5959 17.8106 32.6943 17.8139 32.8945 17.7975C33.157 17.7778 33.1898 17.7647 33.3341 17.6499C33.4359 17.5744 33.5113 17.476 33.5474 17.3906L33.6032 17.2528L33.7443 17.2725C33.9248 17.302 33.974 17.2495 33.9412 17.0756C33.9248 16.9903 33.8657 16.8952 33.7574 16.7803L33.5999 16.613L33.6688 16.4522C33.7049 16.3636 33.741 16.2291 33.7443 16.1536C33.7509 16.0781 33.7935 15.9502 33.8427 15.8649C33.9445 15.6778 33.9477 15.6417 33.8591 15.5006C33.7902 15.3891 33.7771 15.2808 33.7902 14.956C33.7968 14.7788 33.8066 14.7558 33.9576 14.5885C34.0691 14.467 34.1282 14.3686 34.1446 14.2833C34.1545 14.2144 34.1938 14.1094 34.2266 14.0503C34.2726 13.9716 34.289 13.883 34.2857 13.7386C34.2824 13.5844 34.2988 13.4991 34.3579 13.3875C34.4793 13.148 34.7845 12.7247 34.9485 12.5672C35.1224 12.3999 35.2537 12.157 35.3882 11.737C35.5031 11.386 35.4899 11.363 35.1618 11.3302C34.9912 11.3138 34.9157 11.2908 34.8435 11.2285C34.7681 11.1661 34.7254 11.153 34.6401 11.1694C34.3973 11.2153 34.1643 11.2055 33.8952 11.1399C33.6327 11.0742 33.6163 11.0644 33.5868 10.966C33.5704 10.9069 33.5212 10.8216 33.4785 10.7756C33.3932 10.6838 33.3637 10.6838 33.0782 10.8183C32.9404 10.8806 32.8715 10.8938 32.7665 10.8806C32.6943 10.8675 32.5729 10.8544 32.5007 10.8511C32.3695 10.8445 32.2251 10.7625 32.0741 10.6116C32.0315 10.5689 31.9823 10.5328 31.9691 10.5328C31.8904 10.5361 31.6902 10.628 31.6509 10.6838C31.6049 10.7428 31.6016 10.7428 31.5393 10.687C31.5065 10.6575 31.4573 10.5689 31.4343 10.4902C31.372 10.2802 31.3096 10.1719 31.221 10.1325C31.1652 10.1063 31.1324 10.0603 31.1193 9.9783C31.1095 9.91267 31.0931 9.83392 31.0832 9.80111C31.0635 9.72564 30.6993 9.54845 30.5713 9.54845C30.5221 9.54845 30.404 9.50251 30.3088 9.45001C30.2104 9.39423 30.0956 9.35158 30.0529 9.35158C30.007 9.35158 29.8757 9.4172 29.7641 9.49923C29.5968 9.61408 29.5443 9.63704 29.4951 9.61079C29.459 9.59439 29.4327 9.56486 29.4327 9.54845C29.4327 9.45986 29.3212 9.4172 29.0784 9.4172C28.8684 9.4172 28.8191 9.40736 28.7535 9.34829C28.6748 9.27283 28.5632 9.25642 28.3959 9.29579C28.2745 9.32533 28.1399 9.23673 28.0743 9.07267C27.9923 8.8758 27.7757 8.75111 27.7068 8.86267C27.6937 8.88564 27.6674 8.85939 27.6412 8.80033C27.6084 8.72158 27.569 8.69204 27.464 8.66251C27.382 8.63954 27.2835 8.58048 27.2212 8.51486C27.1063 8.39017 26.7946 8.23595 26.6666 8.23595C26.5813 8.23595 26.578 8.22611 26.578 8.07517C26.578 7.98329 26.5945 7.90126 26.6141 7.88814C26.6666 7.85533 26.6273 7.56986 26.5551 7.44845C26.4993 7.35001 26.4993 7.34345 26.5682 7.20892C26.6568 7.03173 26.6863 6.86111 26.6404 6.80533C26.6174 6.77908 26.5387 6.75939 26.4566 6.75939C26.3221 6.75939 26.2926 6.7758 26.1482 6.92017C26.0104 7.06126 25.9874 7.10064 25.9874 7.21548C25.9874 7.36314 25.9021 7.44845 25.7545 7.44845C25.7052 7.44845 25.5871 7.50095 25.492 7.5633C25.2984 7.69455 25.259 7.69455 24.9276 7.56986C24.734 7.49767 24.734 7.49767 24.7504 7.37955C24.7602 7.31392 24.7963 7.22861 24.8357 7.18923C24.8751 7.14986 24.9046 7.07767 24.9046 7.02845C24.9046 6.93329 24.8193 6.82501 24.7471 6.82501C24.7241 6.82501 24.7077 6.78892 24.7077 6.74626C24.7077 6.61173 24.7668 6.49689 24.8554 6.46408C24.9768 6.41814 24.9604 6.3197 24.816 6.23111C24.7471 6.19173 24.6388 6.09986 24.5732 6.03095L24.4584 5.90955H24.081C23.8251 5.90955 23.684 5.92595 23.638 5.95548C23.5724 5.99814 23.5659 5.99158 23.5298 5.82423C23.4805 5.60767 23.3263 5.36814 23.1623 5.25986C23.0343 5.17454 22.7685 5.14501 22.6176 5.19752C22.5585 5.22048 22.529 5.2008 22.4437 5.08267C22.3682 4.97439 22.3452 4.91861 22.3616 4.85626C22.4338 4.57079 22.4338 4.57408 22.2041 4.4297C22.0663 4.34111 21.9843 4.26892 21.9712 4.21642C21.9416 4.10486 21.8334 4.08517 21.6266 4.15408C21.4757 4.2033 21.3641 4.29517 21.3149 4.40673C21.2985 4.44939 21.1541 4.30173 21.0098 4.09173C20.9441 3.99986 20.8884 3.96048 20.7768 3.93095L20.6291 3.89486L20.6521 3.61267C20.6718 3.35017 20.6685 3.32392 20.593 3.21236C20.5504 3.14673 20.5012 3.03845 20.488 2.96627C20.4782 2.89736 20.4519 2.81861 20.4323 2.79564C20.383 2.7333 20.2715 2.7497 20.1632 2.84158Z" fill="white"/>
<path d="M38.397 34.2892C38.2428 34.3121 38.1968 34.3581 38.1903 34.486C38.1903 34.532 38.1804 34.7584 38.1739 34.9914C38.1673 35.2243 38.1542 35.4245 38.1443 35.431C38.1345 35.4409 38.0951 35.431 38.0525 35.4146C37.9606 35.372 37.7736 35.4081 37.5012 35.5229C37.3995 35.5656 37.2879 35.6017 37.2551 35.6017C37.1796 35.6017 36.8778 35.7395 36.7498 35.8313C36.7006 35.8674 36.635 35.897 36.612 35.897C36.5136 35.897 36.4545 36.0118 36.4545 36.2021C36.4545 36.3596 36.4414 36.3924 36.3692 36.4515C36.3232 36.4876 36.2576 36.527 36.2215 36.5368C36.1756 36.5532 36.1592 36.5893 36.1592 36.6681C36.1592 36.7698 36.169 36.7829 36.2871 36.8157C36.3561 36.8321 36.4315 36.8715 36.4578 36.901C36.4939 36.9437 36.4873 36.947 36.4118 36.9306C36.3068 36.901 36.1592 37.0323 36.1592 37.157C36.1592 37.3079 36.3823 37.6131 36.5857 37.7377C36.6251 37.7607 36.6186 37.7804 36.5365 37.8493C36.484 37.8952 36.402 37.951 36.3561 37.974C36.2511 38.0265 36.2412 38.0888 36.3232 38.2168C36.3823 38.3185 36.3987 38.3251 36.5693 38.3251C36.6678 38.3251 36.7498 38.3382 36.7498 38.3546C36.7498 38.371 36.7334 38.4596 36.7137 38.5482C36.6809 38.6893 36.6612 38.7156 36.5825 38.732C36.5168 38.7451 36.4873 38.7713 36.4873 38.8107C36.4873 38.9157 36.5956 38.9813 36.7596 38.9813C36.927 38.9813 36.9893 39.0338 36.8975 39.0995C36.8646 39.1257 36.8351 39.2012 36.8253 39.2898C36.8089 39.421 36.822 39.4538 36.927 39.5982C37.0517 39.7721 37.0976 39.8016 37.2354 39.8016C37.2846 39.8016 37.3864 39.8312 37.4651 39.8673C37.5832 39.9198 37.6193 39.9624 37.685 40.1101C37.744 40.2479 37.7867 40.2971 37.8523 40.3135C37.9704 40.343 38.0951 40.2413 38.1443 40.0773C38.164 40.0051 38.2231 39.887 38.269 39.8148C38.3182 39.7459 38.3576 39.6704 38.3576 39.6507C38.3576 39.631 38.3872 39.5752 38.4265 39.526C38.4757 39.4637 38.4922 39.4079 38.479 39.3324C38.4692 39.2635 38.4823 39.2077 38.5151 39.1684C38.5512 39.1257 38.5709 39.0043 38.5873 38.7254L38.6103 38.3415L38.8137 37.9412C39.0007 37.5671 39.0139 37.5245 39.0139 37.3177C39.0139 37.1963 38.9975 36.9634 38.9811 36.8026C38.9548 36.5926 38.9581 36.4778 38.9843 36.399C39.0204 36.2842 38.9778 35.9167 38.9122 35.792C38.8957 35.7592 38.8826 35.7099 38.8826 35.6837C38.8826 35.6542 38.8465 35.6148 38.8006 35.5951C38.7382 35.5656 38.7218 35.5426 38.7382 35.4901C38.7612 35.4146 38.8268 35.2899 38.8892 35.2046C38.9154 35.1653 38.9089 35.1193 38.8564 35.0078C38.817 34.9192 38.7809 34.7649 38.7711 34.6173C38.7579 34.4171 38.7415 34.3614 38.6825 34.3121C38.6431 34.2826 38.5972 34.2596 38.5742 34.2596C38.5545 34.2629 38.4725 34.276 38.397 34.2892Z" fill="white"/>
</svg>
