<svg width="14" height="14" viewBox="0 0 14 14" fill="none" xmlns="http://www.w3.org/2000/svg">
<path d="M9.9165 1.16675H4.08317C2.47234 1.16675 1.1665 2.47258 1.1665 4.08342V9.91675C1.1665 11.5276 2.47234 12.8334 4.08317 12.8334H9.9165C11.5273 12.8334 12.8332 11.5276 12.8332 9.91675V4.08342C12.8332 2.47258 11.5273 1.16675 9.9165 1.16675Z" stroke="#191919" stroke-linecap="round" stroke-linejoin="round"/>
<path d="M9.33332 6.63243C9.40531 7.11791 9.32239 7.61372 9.09635 8.04936C8.87031 8.48499 8.51266 8.83826 8.07427 9.05891C7.63589 9.27956 7.13909 9.35636 6.65453 9.27839C6.16998 9.20042 5.72235 8.97165 5.37531 8.62461C5.02828 8.27757 4.7995 7.82994 4.72153 7.34539C4.64356 6.86084 4.72036 6.36404 4.94102 5.92565C5.16167 5.48726 5.51493 5.12961 5.95057 4.90357C6.3862 4.67753 6.88201 4.59461 7.36749 4.6666C7.8627 4.74003 8.32115 4.97079 8.67515 5.32478C9.02914 5.67877 9.25989 6.13723 9.33332 6.63243Z" stroke="#191919" stroke-linecap="round" stroke-linejoin="round"/>
<path d="M10.2085 3.79175H10.2143" stroke="#191919" stroke-linecap="round" stroke-linejoin="round"/>
</svg>
