<svg width="48" height="42" viewBox="0 0 48 42" fill="none" xmlns="http://www.w3.org/2000/svg">
<path d="M0.521628 5.695L11.3454 11.1251C11.4758 11.1251 11.6062 11.2576 11.7366 11.2576C11.9974 11.2576 12.2583 11.1251 12.3887 10.8602C12.5191 10.3305 12.3887 9.93315 11.9974 9.66826L1.17366 4.23814C1.04326 4.23814 0.912849 4.1057 0.782442 4.1057H0.521628C0.391221 4.23814 0.260814 4.37058 0.130407 4.63547C0 4.76791 0 4.90035 0 5.16524C0.130407 5.43012 0.260814 5.56256 0.521628 5.695ZM7.17239 3.57593L17.9962 9.00605C18.1266 9.00605 18.257 9.1385 18.3874 9.1385C18.6482 9.1385 18.909 9.00605 19.0394 8.74117C19.1698 8.60873 19.1698 8.34384 19.1698 8.2114C19.1698 7.94652 18.909 7.81408 18.7786 7.68163L7.82442 2.11907C7.69401 2.11907 7.56361 1.98663 7.4332 1.98663H7.17239C6.91157 1.98663 6.78116 2.25151 6.65076 2.38396C6.65076 2.91372 6.78116 3.31105 7.17239 3.57593ZM13.1711 1.45686L23.9949 7.01942C24.1253 7.01942 24.2557 7.15187 24.3861 7.15187C24.6469 7.15187 24.9077 7.01942 25.0381 6.75454C25.1686 6.6221 25.1686 6.35721 25.1686 6.22477C25.1686 5.95989 24.9077 5.82745 24.7773 5.695L13.9535 0.264884C13.8231 0 13.6927 0 13.5623 0H13.3015C13.0407 0 12.9103 0.264884 12.7799 0.397326C12.6495 0.529768 12.6495 0.794652 12.7799 0.927094C12.9103 1.19198 13.0407 1.32442 13.1711 1.45686ZM11.9974 15.893L1.17366 10.3305C1.04326 10.3305 0.912849 10.198 0.782442 10.198H0.521628C0.391221 10.3305 0.260814 10.5954 0.130407 10.7278C0 10.9927 0 11.1251 0 11.39C0 11.6549 0.260814 11.7873 0.391221 11.9198L11.215 17.3499C11.3454 17.3499 11.4758 17.4823 11.6062 17.4823C11.867 17.4823 12.1279 17.3499 12.2583 17.085C12.5191 16.5552 12.3887 16.0255 11.9974 15.893ZM11.9974 22.78L1.17366 17.2175H0.521628C0.260814 17.2175 0.130407 17.4823 0 17.6148V18.1446C0 18.4094 0.260814 18.5419 0.391221 18.6743L11.215 24.1044C11.3454 24.1044 11.4758 24.2369 11.6062 24.2369C11.867 24.2369 12.1279 24.1044 12.2583 23.8396C12.5191 23.4422 12.3887 22.9125 11.9974 22.78ZM45.2512 34.5832H45.1208L30.6456 40.1458V21.2066L45.2512 15.644V34.5832ZM29.8632 19.8822L17.6049 14.4521L24.1253 11.5383L35.8619 17.4982L29.8632 19.8822ZM29.0808 40.0134L16.4313 34.5832V15.7765L29.0808 21.2066V40.0134ZM31.1673 8.49218L43.9472 14.4521L37.9484 16.7036L26.0814 10.7437L31.1673 8.49218ZM46.8161 14.0547C46.8161 13.9223 46.6857 13.9223 46.8161 14.0547L46.6857 13.7899C46.5553 13.7899 46.5553 13.6574 46.5553 13.6574L31.6889 6.77043C31.4281 6.63799 31.2977 6.63799 31.0369 6.77043L15.388 13.6574V13.7899H15.1272V13.9223C15.1272 14.0547 15.1272 14.0547 14.9968 14.0547V35.113C14.9968 35.3779 15.1272 35.6428 15.5184 35.9077L29.472 41.8676C29.7328 42 29.8632 42 29.9936 42H30.3848L46.5553 35.7752C46.8161 35.6428 47.0769 35.3779 47.0769 34.9806L46.8161 14.0547Z" fill="white"/>
</svg>
