<svg width="14" height="11" viewBox="0 0 14 11" fill="none" xmlns="http://www.w3.org/2000/svg">
<path d="M13.1483 2.74492C13.0791 2.46807 12.9379 2.21442 12.7392 2.00957C12.5405 1.80473 12.2913 1.65594 12.0167 1.57825C11.0133 1.33325 7.00001 1.33325 7.00001 1.33325C7.00001 1.33325 2.98668 1.33325 1.98334 1.60159C1.70874 1.67928 1.45949 1.82806 1.26079 2.03291C1.06209 2.23775 0.920968 2.49141 0.851675 2.76825C0.66805 3.78649 0.578229 4.81943 0.583341 5.85408C0.576796 6.89653 0.666622 7.93734 0.851675 8.96325C0.928068 9.2315 1.07235 9.4755 1.27059 9.6717C1.46883 9.86789 1.71432 10.0096 1.98334 10.0833C2.98668 10.3516 7.00001 10.3516 7.00001 10.3516C7.00001 10.3516 11.0133 10.3516 12.0167 10.0833C12.2913 10.0056 12.5405 9.85678 12.7392 9.65193C12.9379 9.44708 13.0791 9.19343 13.1483 8.91658C13.3306 7.90601 13.4204 6.88095 13.4167 5.85408C13.4232 4.81164 13.3334 3.77083 13.1483 2.74492V2.74492Z" stroke="#191919" stroke-linecap="round" stroke-linejoin="round"/>
</svg>
