<svg width="20" height="20" viewBox="0 0 20 20" fill="none" xmlns="http://www.w3.org/2000/svg">
<path d="M5.04996 12.1209L2.92996 14.2429L5.75796 17.0709L17.071 5.75695L14.243 2.92995L12.12 5.04995L13.535 6.46395L12.12 7.87995L10.706 6.46495L9.29196 7.87995L10.706 9.29395L9.29196 10.7079L7.87796 9.29395L6.46296 10.7079L7.87796 12.1219L6.46296 13.5369L5.04996 12.1199V12.1209ZM14.95 0.807947L19.192 5.04995C19.3794 5.23747 19.4847 5.49178 19.4847 5.75695C19.4847 6.02211 19.3794 6.27642 19.192 6.46395L6.46396 19.1919C6.27643 19.3794 6.02212 19.4847 5.75696 19.4847C5.49179 19.4847 5.23749 19.3794 5.04996 19.1919L0.807959 14.9499C0.620488 14.7624 0.515172 14.5081 0.515172 14.2429C0.515172 13.9778 0.620488 13.7235 0.807959 13.5359L13.536 0.807947C13.7235 0.620476 13.9778 0.51516 14.243 0.51516C14.5081 0.51516 14.7624 0.620476 14.95 0.807947ZM12.12 16.3629L13.535 14.9489L15.777 17.1919H17.191V15.7779L14.949 13.5349L16.363 12.1209L19 14.7569V18.9999H14.758L12.121 16.3629H12.12ZM3.63596 7.87795L0.806958 5.04995C0.713982 4.95707 0.640223 4.84679 0.589899 4.72539C0.539575 4.60399 0.513672 4.47386 0.513672 4.34245C0.513672 4.21103 0.539575 4.0809 0.589899 3.95951C0.640223 3.83811 0.713982 3.72782 0.806958 3.63495L3.63596 0.806947C3.82349 0.619475 4.07779 0.51416 4.34296 0.51416C4.60812 0.51416 4.86243 0.619475 5.04996 0.806947L7.87996 3.63495L6.46396 5.04995L4.34296 2.92795L2.92896 4.34295L5.04996 6.46295L3.63596 7.87795Z" fill="#191919"/>
</svg>
