<svg width="48" height="48" viewBox="0 0 48 48" fill="none" xmlns="http://www.w3.org/2000/svg">
<path d="M4.412 38.46L5.864 34.464H5.888L7.316 38.46H4.412ZM5.264 33.432L1.928 42H3.092L4.052 39.42H7.676L8.612 42H9.872L6.524 33.432H5.264ZM10.5133 35.796V42H11.5333V39.24C11.5333 38.84 11.5733 38.488 11.6533 38.184C11.7333 37.872 11.8613 37.608 12.0373 37.392C12.2133 37.176 12.4453 37.012 12.7333 36.9C13.0213 36.788 13.3693 36.732 13.7773 36.732V35.652C13.2253 35.636 12.7693 35.748 12.4093 35.988C12.0493 36.228 11.7453 36.6 11.4973 37.104H11.4733V35.796H10.5133ZM15.9613 35.796V33.936H14.9413V35.796H13.8853V36.696H14.9413V40.644C14.9413 40.932 14.9693 41.164 15.0253 41.34C15.0813 41.516 15.1653 41.652 15.2773 41.748C15.3973 41.844 15.5493 41.912 15.7333 41.952C15.9253 41.984 16.1533 42 16.4173 42H17.1973V41.1H16.7293C16.5693 41.1 16.4373 41.096 16.3333 41.088C16.2373 41.072 16.1613 41.044 16.1053 41.004C16.0493 40.964 16.0093 40.908 15.9853 40.836C15.9693 40.764 15.9613 40.668 15.9613 40.548V36.696H17.1973V35.796H15.9613ZM19.4105 34.68V33.432H18.3905V34.68H19.4105ZM18.3905 35.796V42H19.4105V35.796H18.3905ZM25.2027 37.788H26.2587C26.2187 37.42 26.1227 37.104 25.9707 36.84C25.8187 36.568 25.6227 36.344 25.3827 36.168C25.1507 35.992 24.8787 35.864 24.5667 35.784C24.2627 35.696 23.9347 35.652 23.5827 35.652C23.0947 35.652 22.6667 35.74 22.2987 35.916C21.9307 36.084 21.6227 36.32 21.3747 36.624C21.1347 36.92 20.9547 37.272 20.8347 37.68C20.7147 38.08 20.6547 38.512 20.6547 38.976C20.6547 39.44 20.7147 39.868 20.8347 40.26C20.9627 40.644 21.1467 40.976 21.3867 41.256C21.6347 41.536 21.9387 41.752 22.2987 41.904C22.6667 42.056 23.0867 42.132 23.5587 42.132C24.3507 42.132 24.9747 41.924 25.4307 41.508C25.8947 41.092 26.1827 40.5 26.2947 39.732H25.2507C25.1867 40.212 25.0107 40.584 24.7227 40.848C24.4427 41.112 24.0507 41.244 23.5467 41.244C23.2267 41.244 22.9507 41.18 22.7187 41.052C22.4867 40.924 22.2987 40.756 22.1547 40.548C22.0107 40.332 21.9027 40.088 21.8307 39.816C21.7667 39.544 21.7347 39.264 21.7347 38.976C21.7347 38.664 21.7667 38.364 21.8307 38.076C21.8947 37.78 21.9987 37.52 22.1427 37.296C22.2947 37.072 22.4947 36.892 22.7427 36.756C22.9907 36.62 23.2987 36.552 23.6667 36.552C24.0987 36.552 24.4427 36.66 24.6987 36.876C24.9547 37.092 25.1227 37.396 25.2027 37.788ZM27.496 33.432V42H28.516V33.432H27.496ZM34.4041 38.304H30.8401C30.8561 38.064 30.9081 37.84 30.9961 37.632C31.0841 37.416 31.2041 37.228 31.3561 37.068C31.5081 36.908 31.6881 36.784 31.8961 36.696C32.1121 36.6 32.3521 36.552 32.6161 36.552C32.8721 36.552 33.1041 36.6 33.3121 36.696C33.5281 36.784 33.7121 36.908 33.8641 37.068C34.0241 37.22 34.1481 37.404 34.2361 37.62C34.3321 37.836 34.3881 38.064 34.4041 38.304ZM35.3881 40.032H34.3801C34.2921 40.44 34.1081 40.744 33.8281 40.944C33.5561 41.144 33.2041 41.244 32.7721 41.244C32.4361 41.244 32.1441 41.188 31.8961 41.076C31.6481 40.964 31.4441 40.816 31.2841 40.632C31.1241 40.44 31.0081 40.224 30.9361 39.984C30.8641 39.736 30.8321 39.476 30.8401 39.204H35.4841C35.5001 38.828 35.4641 38.432 35.3761 38.016C35.2961 37.6 35.1441 37.216 34.9201 36.864C34.7041 36.512 34.4121 36.224 34.0441 36C33.6841 35.768 33.2281 35.652 32.6761 35.652C32.2521 35.652 31.8601 35.732 31.5001 35.892C31.1481 36.052 30.8401 36.276 30.5761 36.564C30.3201 36.852 30.1201 37.192 29.9761 37.584C29.8321 37.976 29.7601 38.408 29.7601 38.88C29.7761 39.352 29.8441 39.788 29.9641 40.188C30.0921 40.588 30.2801 40.932 30.5281 41.22C30.7761 41.508 31.0801 41.732 31.4401 41.892C31.8081 42.052 32.2401 42.132 32.7361 42.132C33.4401 42.132 34.0241 41.956 34.4881 41.604C34.9521 41.252 35.2521 40.728 35.3881 40.032ZM37.1654 40.044H36.1454C36.1614 40.428 36.2414 40.756 36.3854 41.028C36.5294 41.292 36.7214 41.508 36.9614 41.676C37.2014 41.836 37.4774 41.952 37.7894 42.024C38.1014 42.096 38.4294 42.132 38.7734 42.132C39.0854 42.132 39.3974 42.1 39.7094 42.036C40.0294 41.98 40.3134 41.876 40.5614 41.724C40.8174 41.572 41.0214 41.372 41.1734 41.124C41.3334 40.876 41.4134 40.564 41.4134 40.188C41.4134 39.892 41.3534 39.644 41.2334 39.444C41.1214 39.244 40.9694 39.08 40.7774 38.952C40.5934 38.816 40.3774 38.708 40.1294 38.628C39.8894 38.548 39.6414 38.48 39.3854 38.424C39.1454 38.368 38.9054 38.316 38.6654 38.268C38.4254 38.212 38.2094 38.148 38.0174 38.076C37.8254 37.996 37.6654 37.9 37.5374 37.788C37.4174 37.668 37.3574 37.52 37.3574 37.344C37.3574 37.184 37.3974 37.056 37.4774 36.96C37.5574 36.856 37.6614 36.776 37.7894 36.72C37.9174 36.656 38.0574 36.612 38.2094 36.588C38.3694 36.564 38.5254 36.552 38.6774 36.552C38.8454 36.552 39.0094 36.572 39.1694 36.612C39.3374 36.644 39.4894 36.7 39.6254 36.78C39.7614 36.86 39.8734 36.968 39.9614 37.104C40.0494 37.232 40.1014 37.396 40.1174 37.596H41.1374C41.1134 37.22 41.0334 36.908 40.8974 36.66C40.7614 36.404 40.5774 36.204 40.3454 36.06C40.1214 35.908 39.8614 35.804 39.5654 35.748C39.2694 35.684 38.9454 35.652 38.5934 35.652C38.3214 35.652 38.0454 35.688 37.7654 35.76C37.4934 35.824 37.2454 35.928 37.0214 36.072C36.8054 36.208 36.6254 36.388 36.4814 36.612C36.3454 36.836 36.2774 37.104 36.2774 37.416C36.2774 37.816 36.3774 38.128 36.5774 38.352C36.7774 38.576 37.0254 38.752 37.3214 38.88C37.6254 39 37.9534 39.096 38.3054 39.168C38.6574 39.232 38.9814 39.308 39.2774 39.396C39.5814 39.476 39.8334 39.584 40.0334 39.72C40.2334 39.856 40.3334 40.056 40.3334 40.32C40.3334 40.512 40.2854 40.672 40.1894 40.8C40.0934 40.92 39.9694 41.012 39.8174 41.076C39.6734 41.14 39.5134 41.184 39.3374 41.208C39.1614 41.232 38.9934 41.244 38.8334 41.244C38.6254 41.244 38.4214 41.224 38.2214 41.184C38.0294 41.144 37.8534 41.08 37.6934 40.992C37.5414 40.896 37.4174 40.772 37.3214 40.62C37.2254 40.46 37.1734 40.268 37.1654 40.044Z" fill="black"/>
<path d="M14 22C14 19.8783 14.8429 17.8434 16.3431 16.3431C17.8434 14.8429 19.8783 14 22 14C24.1217 14 26.1566 14.8429 27.6569 16.3431C29.1571 17.8434 30 19.8783 30 22H28C28 20.4087 27.3679 18.8826 26.2426 17.7574C25.1174 16.6321 23.5913 16 22 16C20.4087 16 18.8826 16.6321 17.7574 17.7574C16.6321 18.8826 16 20.4087 16 22H14ZM22 13C18.685 13 16 10.315 16 7C16 3.685 18.685 1 22 1C25.315 1 28 3.685 28 7C28 10.315 25.315 13 22 13ZM22 11C24.21 11 26 9.21 26 7C26 4.79 24.21 3 22 3C19.79 3 18 4.79 18 7C18 9.21 19.79 11 22 11Z" fill="black"/>
</svg>
