<svg width="48" height="48" viewBox="0 0 48 48" fill="none" xmlns="http://www.w3.org/2000/svg">
<path d="M8.96 36.012H10.1C10.036 35.556 9.9 35.156 9.692 34.812C9.484 34.46 9.224 34.168 8.912 33.936C8.6 33.704 8.244 33.528 7.844 33.408C7.444 33.288 7.02 33.228 6.572 33.228C5.916 33.228 5.332 33.348 4.82 33.588C4.316 33.82 3.892 34.14 3.548 34.548C3.212 34.956 2.956 35.436 2.78 35.988C2.604 36.532 2.516 37.116 2.516 37.74C2.516 38.364 2.596 38.948 2.756 39.492C2.924 40.036 3.172 40.508 3.5 40.908C3.828 41.308 4.24 41.624 4.736 41.856C5.232 42.08 5.812 42.192 6.476 42.192C7.572 42.192 8.436 41.892 9.068 41.292C9.7 40.692 10.072 39.852 10.184 38.772H9.044C9.02 39.124 8.948 39.452 8.828 39.756C8.708 40.06 8.54 40.324 8.324 40.548C8.116 40.764 7.864 40.936 7.568 41.064C7.28 41.184 6.948 41.244 6.572 41.244C6.06 41.244 5.62 41.148 5.252 40.956C4.884 40.764 4.58 40.508 4.34 40.188C4.108 39.86 3.936 39.48 3.824 39.048C3.712 38.608 3.656 38.144 3.656 37.656C3.656 37.208 3.712 36.776 3.824 36.36C3.936 35.944 4.108 35.576 4.34 35.256C4.58 34.928 4.88 34.668 5.24 34.476C5.608 34.284 6.048 34.188 6.56 34.188C7.16 34.188 7.676 34.34 8.108 34.644C8.548 34.948 8.832 35.404 8.96 36.012ZM12.1722 38.904C12.1722 38.528 12.2202 38.196 12.3162 37.908C12.4202 37.612 12.5602 37.364 12.7362 37.164C12.9122 36.964 13.1162 36.812 13.3482 36.708C13.5882 36.604 13.8402 36.552 14.1042 36.552C14.3682 36.552 14.6162 36.604 14.8482 36.708C15.0882 36.812 15.2962 36.964 15.4722 37.164C15.6482 37.364 15.7842 37.612 15.8802 37.908C15.9842 38.196 16.0362 38.528 16.0362 38.904C16.0362 39.28 15.9842 39.616 15.8802 39.912C15.7842 40.2 15.6482 40.444 15.4722 40.644C15.2962 40.836 15.0882 40.984 14.8482 41.088C14.6162 41.192 14.3682 41.244 14.1042 41.244C13.8402 41.244 13.5882 41.192 13.3482 41.088C13.1162 40.984 12.9122 40.836 12.7362 40.644C12.5602 40.444 12.4202 40.2 12.3162 39.912C12.2202 39.616 12.1722 39.28 12.1722 38.904ZM11.0922 38.904C11.0922 39.36 11.1562 39.784 11.2842 40.176C11.4122 40.568 11.6042 40.912 11.8602 41.208C12.1162 41.496 12.4322 41.724 12.8082 41.892C13.1842 42.052 13.6162 42.132 14.1042 42.132C14.6002 42.132 15.0322 42.052 15.4002 41.892C15.7762 41.724 16.0922 41.496 16.3482 41.208C16.6042 40.912 16.7962 40.568 16.9242 40.176C17.0522 39.784 17.1162 39.36 17.1162 38.904C17.1162 38.448 17.0522 38.024 16.9242 37.632C16.7962 37.232 16.6042 36.888 16.3482 36.6C16.0922 36.304 15.7762 36.072 15.4002 35.904C15.0322 35.736 14.6002 35.652 14.1042 35.652C13.6162 35.652 13.1842 35.736 12.8082 35.904C12.4322 36.072 12.1162 36.304 11.8602 36.6C11.6042 36.888 11.4122 37.232 11.2842 37.632C11.1562 38.024 11.0922 38.448 11.0922 38.904ZM18.3188 35.796V42H19.3388V38.136C19.3388 38.016 19.3668 37.868 19.4228 37.692C19.4868 37.508 19.5828 37.332 19.7108 37.164C19.8468 36.996 20.0188 36.852 20.2268 36.732C20.4428 36.612 20.6988 36.552 20.9948 36.552C21.2268 36.552 21.4148 36.588 21.5588 36.66C21.7108 36.724 21.8308 36.82 21.9188 36.948C22.0068 37.068 22.0668 37.212 22.0988 37.38C22.1388 37.548 22.1588 37.732 22.1588 37.932V42H23.1788V38.136C23.1788 37.656 23.3228 37.272 23.6108 36.984C23.8988 36.696 24.2948 36.552 24.7988 36.552C25.0468 36.552 25.2468 36.588 25.3988 36.66C25.5588 36.732 25.6828 36.832 25.7708 36.96C25.8588 37.08 25.9188 37.224 25.9508 37.392C25.9828 37.56 25.9988 37.74 25.9988 37.932V42H27.0188V37.452C27.0188 37.132 26.9668 36.86 26.8628 36.636C26.7668 36.404 26.6268 36.216 26.4428 36.072C26.2668 35.928 26.0508 35.824 25.7948 35.76C25.5468 35.688 25.2668 35.652 24.9548 35.652C24.5468 35.652 24.1708 35.744 23.8268 35.928C23.4908 36.112 23.2188 36.372 23.0108 36.708C22.8828 36.324 22.6628 36.052 22.3508 35.892C22.0388 35.732 21.6908 35.652 21.3068 35.652C20.4348 35.652 19.7668 36.004 19.3028 36.708H19.2788V35.796H18.3188ZM28.5853 35.796V44.364H29.6053V41.172H29.6293C29.7413 41.356 29.8773 41.512 30.0373 41.64C30.2053 41.76 30.3813 41.856 30.5653 41.928C30.7493 42 30.9333 42.052 31.1173 42.084C31.3093 42.116 31.4813 42.132 31.6333 42.132C32.1053 42.132 32.5173 42.048 32.8693 41.88C33.2293 41.712 33.5253 41.484 33.7573 41.196C33.9973 40.9 34.1733 40.556 34.2853 40.164C34.4053 39.772 34.4653 39.356 34.4653 38.916C34.4653 38.476 34.4053 38.06 34.2853 37.668C34.1653 37.276 33.9853 36.932 33.7453 36.636C33.5133 36.332 33.2173 36.092 32.8573 35.916C32.5053 35.74 32.0893 35.652 31.6093 35.652C31.1773 35.652 30.7813 35.732 30.4213 35.892C30.0613 36.044 29.7973 36.292 29.6293 36.636H29.6053V35.796H28.5853ZM33.3853 38.844C33.3853 39.148 33.3533 39.444 33.2893 39.732C33.2253 40.02 33.1213 40.276 32.9773 40.5C32.8333 40.724 32.6413 40.904 32.4013 41.04C32.1693 41.176 31.8773 41.244 31.5253 41.244C31.1733 41.244 30.8733 41.18 30.6253 41.052C30.3773 40.916 30.1733 40.74 30.0133 40.524C29.8613 40.308 29.7493 40.06 29.6773 39.78C29.6053 39.492 29.5693 39.196 29.5693 38.892C29.5693 38.604 29.6013 38.32 29.6653 38.04C29.7373 37.76 29.8493 37.512 30.0013 37.296C30.1533 37.072 30.3493 36.892 30.5893 36.756C30.8293 36.62 31.1213 36.552 31.4653 36.552C31.7933 36.552 32.0773 36.616 32.3173 36.744C32.5653 36.872 32.7653 37.044 32.9173 37.26C33.0773 37.476 33.1933 37.724 33.2653 38.004C33.3453 38.276 33.3853 38.556 33.3853 38.844ZM37.0785 35.796V33.936H36.0585V35.796H35.0025V36.696H36.0585V40.644C36.0585 40.932 36.0865 41.164 36.1425 41.34C36.1985 41.516 36.2825 41.652 36.3945 41.748C36.5145 41.844 36.6665 41.912 36.8505 41.952C37.0425 41.984 37.2705 42 37.5345 42H38.3145V41.1H37.8465C37.6865 41.1 37.5545 41.096 37.4505 41.088C37.3545 41.072 37.2785 41.044 37.2225 41.004C37.1665 40.964 37.1265 40.908 37.1025 40.836C37.0865 40.764 37.0785 40.668 37.0785 40.548V36.696H38.3145V35.796H37.0785ZM43.7557 38.304H40.1917C40.2077 38.064 40.2597 37.84 40.3477 37.632C40.4357 37.416 40.5557 37.228 40.7077 37.068C40.8597 36.908 41.0397 36.784 41.2477 36.696C41.4637 36.6 41.7037 36.552 41.9677 36.552C42.2237 36.552 42.4557 36.6 42.6637 36.696C42.8797 36.784 43.0637 36.908 43.2157 37.068C43.3757 37.22 43.4997 37.404 43.5877 37.62C43.6837 37.836 43.7397 38.064 43.7557 38.304ZM44.7397 40.032H43.7317C43.6437 40.44 43.4597 40.744 43.1797 40.944C42.9077 41.144 42.5557 41.244 42.1237 41.244C41.7877 41.244 41.4957 41.188 41.2477 41.076C40.9997 40.964 40.7957 40.816 40.6357 40.632C40.4757 40.44 40.3597 40.224 40.2877 39.984C40.2157 39.736 40.1837 39.476 40.1917 39.204H44.8357C44.8517 38.828 44.8157 38.432 44.7277 38.016C44.6477 37.6 44.4957 37.216 44.2717 36.864C44.0557 36.512 43.7637 36.224 43.3957 36C43.0357 35.768 42.5797 35.652 42.0277 35.652C41.6037 35.652 41.2117 35.732 40.8517 35.892C40.4997 36.052 40.1917 36.276 39.9277 36.564C39.6717 36.852 39.4717 37.192 39.3277 37.584C39.1837 37.976 39.1117 38.408 39.1117 38.88C39.1277 39.352 39.1957 39.788 39.3157 40.188C39.4437 40.588 39.6317 40.932 39.8797 41.22C40.1277 41.508 40.4317 41.732 40.7917 41.892C41.1597 42.052 41.5917 42.132 42.0877 42.132C42.7917 42.132 43.3757 41.956 43.8397 41.604C44.3037 41.252 44.6037 40.728 44.7397 40.032Z" fill="black"/>
<path d="M16 22C16 19.8783 16.8429 17.8434 18.3431 16.3431C19.8434 14.8429 21.8783 14 24 14C26.1217 14 28.1566 14.8429 29.6569 16.3431C31.1571 17.8434 32 19.8783 32 22H30C30 20.4087 29.3679 18.8826 28.2426 17.7574C27.1174 16.6321 25.5913 16 24 16C22.4087 16 20.8826 16.6321 19.7574 17.7574C18.6321 18.8826 18 20.4087 18 22H16ZM24 13C20.685 13 18 10.315 18 7C18 3.685 20.685 1 24 1C27.315 1 30 3.685 30 7C30 10.315 27.315 13 24 13ZM24 11C26.21 11 28 9.21 28 7C28 4.79 26.21 3 24 3C21.79 3 20 4.79 20 7C20 9.21 21.79 11 24 11Z" fill="black"/>
</svg>
