<svg width="38" height="48" viewBox="0 0 38 48" fill="none" xmlns="http://www.w3.org/2000/svg">
<path d="M2.076 41.04V34.392H3.996C4.524 34.392 4.968 34.468 5.328 34.62C5.688 34.764 5.98 34.98 6.204 35.268C6.436 35.548 6.6 35.892 6.696 36.3C6.8 36.7 6.852 37.156 6.852 37.668C6.852 38.196 6.796 38.648 6.684 39.024C6.58 39.392 6.444 39.7 6.276 39.948C6.108 40.196 5.916 40.392 5.7 40.536C5.492 40.68 5.28 40.792 5.064 40.872C4.848 40.944 4.644 40.992 4.452 41.016C4.26 41.032 4.1 41.04 3.972 41.04H2.076ZM0.936 33.432V42H3.876C4.588 42 5.204 41.9 5.724 41.7C6.244 41.5 6.672 41.212 7.008 40.836C7.344 40.452 7.592 39.984 7.752 39.432C7.912 38.872 7.992 38.232 7.992 37.512C7.992 36.136 7.636 35.112 6.924 34.44C6.212 33.768 5.196 33.432 3.876 33.432H0.936ZM13.5252 38.304H9.96122C9.97722 38.064 10.0292 37.84 10.1172 37.632C10.2052 37.416 10.3252 37.228 10.4772 37.068C10.6292 36.908 10.8092 36.784 11.0172 36.696C11.2332 36.6 11.4732 36.552 11.7372 36.552C11.9932 36.552 12.2252 36.6 12.4332 36.696C12.6492 36.784 12.8332 36.908 12.9852 37.068C13.1452 37.22 13.2692 37.404 13.3572 37.62C13.4532 37.836 13.5092 38.064 13.5252 38.304ZM14.5092 40.032H13.5012C13.4132 40.44 13.2292 40.744 12.9492 40.944C12.6772 41.144 12.3252 41.244 11.8932 41.244C11.5572 41.244 11.2652 41.188 11.0172 41.076C10.7692 40.964 10.5652 40.816 10.4052 40.632C10.2452 40.44 10.1292 40.224 10.0572 39.984C9.98522 39.736 9.95322 39.476 9.96122 39.204H14.6052C14.6212 38.828 14.5852 38.432 14.4972 38.016C14.4172 37.6 14.2652 37.216 14.0412 36.864C13.8252 36.512 13.5332 36.224 13.1652 36C12.8052 35.768 12.3492 35.652 11.7972 35.652C11.3732 35.652 10.9812 35.732 10.6212 35.892C10.2692 36.052 9.96122 36.276 9.69722 36.564C9.44122 36.852 9.24122 37.192 9.09722 37.584C8.95322 37.976 8.88122 38.408 8.88122 38.88C8.89722 39.352 8.96522 39.788 9.08522 40.188C9.21322 40.588 9.40122 40.932 9.64922 41.22C9.89722 41.508 10.2012 41.732 10.5612 41.892C10.9292 42.052 11.3612 42.132 11.8572 42.132C12.5612 42.132 13.1452 41.956 13.6092 41.604C14.0732 41.252 14.3732 40.728 14.5092 40.032ZM16.2865 40.044H15.2665C15.2825 40.428 15.3625 40.756 15.5065 41.028C15.6505 41.292 15.8425 41.508 16.0825 41.676C16.3225 41.836 16.5985 41.952 16.9105 42.024C17.2225 42.096 17.5505 42.132 17.8945 42.132C18.2065 42.132 18.5185 42.1 18.8305 42.036C19.1505 41.98 19.4345 41.876 19.6825 41.724C19.9385 41.572 20.1425 41.372 20.2945 41.124C20.4545 40.876 20.5345 40.564 20.5345 40.188C20.5345 39.892 20.4745 39.644 20.3545 39.444C20.2425 39.244 20.0905 39.08 19.8985 38.952C19.7145 38.816 19.4985 38.708 19.2505 38.628C19.0105 38.548 18.7625 38.48 18.5065 38.424C18.2665 38.368 18.0265 38.316 17.7865 38.268C17.5465 38.212 17.3305 38.148 17.1385 38.076C16.9465 37.996 16.7865 37.9 16.6585 37.788C16.5385 37.668 16.4785 37.52 16.4785 37.344C16.4785 37.184 16.5185 37.056 16.5985 36.96C16.6785 36.856 16.7825 36.776 16.9105 36.72C17.0385 36.656 17.1785 36.612 17.3305 36.588C17.4905 36.564 17.6465 36.552 17.7985 36.552C17.9665 36.552 18.1305 36.572 18.2905 36.612C18.4585 36.644 18.6105 36.7 18.7465 36.78C18.8825 36.86 18.9945 36.968 19.0825 37.104C19.1705 37.232 19.2225 37.396 19.2385 37.596H20.2585C20.2345 37.22 20.1545 36.908 20.0185 36.66C19.8825 36.404 19.6985 36.204 19.4665 36.06C19.2425 35.908 18.9825 35.804 18.6865 35.748C18.3905 35.684 18.0665 35.652 17.7145 35.652C17.4425 35.652 17.1665 35.688 16.8865 35.76C16.6145 35.824 16.3665 35.928 16.1425 36.072C15.9265 36.208 15.7465 36.388 15.6025 36.612C15.4665 36.836 15.3985 37.104 15.3985 37.416C15.3985 37.816 15.4985 38.128 15.6985 38.352C15.8985 38.576 16.1465 38.752 16.4425 38.88C16.7465 39 17.0745 39.096 17.4265 39.168C17.7785 39.232 18.1025 39.308 18.3985 39.396C18.7025 39.476 18.9545 39.584 19.1545 39.72C19.3545 39.856 19.4545 40.056 19.4545 40.32C19.4545 40.512 19.4065 40.672 19.3105 40.8C19.2145 40.92 19.0905 41.012 18.9385 41.076C18.7945 41.14 18.6345 41.184 18.4585 41.208C18.2825 41.232 18.1145 41.244 17.9545 41.244C17.7465 41.244 17.5425 41.224 17.3425 41.184C17.1505 41.144 16.9745 41.08 16.8145 40.992C16.6625 40.896 16.5385 40.772 16.4425 40.62C16.3465 40.46 16.2945 40.268 16.2865 40.044ZM22.7425 34.68V33.432H21.7225V34.68H22.7425ZM21.7225 35.796V42H22.7425V35.796H21.7225ZM29.6747 41.472V35.796H28.7147V36.684H28.7027C28.5187 36.34 28.2627 36.084 27.9347 35.916C27.6067 35.74 27.2467 35.652 26.8547 35.652C26.3187 35.652 25.8667 35.756 25.4987 35.964C25.1307 36.164 24.8347 36.424 24.6107 36.744C24.3867 37.056 24.2267 37.408 24.1307 37.8C24.0347 38.184 23.9867 38.56 23.9867 38.928C23.9867 39.352 24.0427 39.756 24.1547 40.14C24.2747 40.516 24.4507 40.848 24.6827 41.136C24.9147 41.416 25.2027 41.64 25.5467 41.808C25.8907 41.976 26.2947 42.06 26.7587 42.06C27.1587 42.06 27.5347 41.972 27.8867 41.796C28.2467 41.612 28.5147 41.328 28.6907 40.944H28.7147V41.352C28.7147 41.696 28.6787 42.012 28.6067 42.3C28.5427 42.588 28.4347 42.832 28.2827 43.032C28.1307 43.24 27.9387 43.4 27.7067 43.512C27.4747 43.632 27.1907 43.692 26.8547 43.692C26.6867 43.692 26.5107 43.672 26.3267 43.632C26.1427 43.6 25.9707 43.544 25.8107 43.464C25.6587 43.384 25.5267 43.28 25.4147 43.152C25.3107 43.024 25.2547 42.868 25.2467 42.684H24.2267C24.2427 43.02 24.3307 43.304 24.4907 43.536C24.6507 43.768 24.8507 43.956 25.0907 44.1C25.3387 44.244 25.6107 44.348 25.9067 44.412C26.2107 44.476 26.5067 44.508 26.7947 44.508C27.7867 44.508 28.5147 44.256 28.9787 43.752C29.4427 43.248 29.6747 42.488 29.6747 41.472ZM26.8187 41.172C26.4827 41.172 26.2027 41.104 25.9787 40.968C25.7547 40.824 25.5747 40.64 25.4387 40.416C25.3027 40.184 25.2067 39.928 25.1507 39.648C25.0947 39.368 25.0667 39.088 25.0667 38.808C25.0667 38.512 25.0987 38.228 25.1627 37.956C25.2347 37.684 25.3427 37.444 25.4867 37.236C25.6387 37.028 25.8307 36.864 26.0627 36.744C26.2947 36.616 26.5747 36.552 26.9027 36.552C27.2227 36.552 27.4947 36.616 27.7187 36.744C27.9427 36.872 28.1227 37.044 28.2587 37.26C28.4027 37.468 28.5067 37.704 28.5707 37.968C28.6347 38.232 28.6667 38.5 28.6667 38.772C28.6667 39.06 28.6307 39.348 28.5587 39.636C28.4947 39.924 28.3907 40.184 28.2467 40.416C28.1027 40.64 27.9107 40.824 27.6707 40.968C27.4387 41.104 27.1547 41.172 26.8187 41.172ZM31.2133 35.796V42H32.2333V38.496C32.2333 38.216 32.2693 37.96 32.3413 37.728C32.4213 37.488 32.5373 37.28 32.6893 37.104C32.8413 36.928 33.0293 36.792 33.2533 36.696C33.4853 36.6 33.7573 36.552 34.0693 36.552C34.4613 36.552 34.7693 36.664 34.9933 36.888C35.2173 37.112 35.3293 37.416 35.3293 37.8V42H36.3493V37.92C36.3493 37.584 36.3133 37.28 36.2413 37.008C36.1773 36.728 36.0613 36.488 35.8933 36.288C35.7253 36.088 35.5053 35.932 35.2333 35.82C34.9613 35.708 34.6213 35.652 34.2133 35.652C33.2933 35.652 32.6213 36.028 32.1973 36.78H32.1733V35.796H31.2133Z" fill="#191919"/>
<path d="M14.05 14.1209L11.93 16.2429L14.758 19.0709L26.071 7.75695L23.243 4.92995L21.12 7.04995L22.535 8.46395L21.12 9.87995L19.706 8.46495L18.292 9.87995L19.706 11.2939L18.292 12.7079L16.878 11.2939L15.463 12.7079L16.878 14.1219L15.463 15.5369L14.05 14.1199V14.1209ZM23.95 2.80795L28.192 7.04995C28.3794 7.23747 28.4847 7.49178 28.4847 7.75695C28.4847 8.02211 28.3794 8.27642 28.192 8.46395L15.464 21.1919C15.2764 21.3794 15.0221 21.4847 14.757 21.4847C14.4918 21.4847 14.2375 21.3794 14.05 21.1919L9.80796 16.9499C9.62049 16.7624 9.51517 16.5081 9.51517 16.2429C9.51517 15.9778 9.62049 15.7235 9.80796 15.5359L22.536 2.80795C22.7235 2.62048 22.9778 2.51516 23.243 2.51516C23.5081 2.51516 23.7624 2.62048 23.95 2.80795ZM21.12 18.3629L22.535 16.9489L24.777 19.1919H26.191V17.7779L23.949 15.5349L25.363 14.1209L28 16.7569V20.9999H23.758L21.121 18.3629H21.12ZM12.636 9.87795L9.80696 7.04995C9.71398 6.95707 9.64022 6.84679 9.5899 6.72539C9.53957 6.60399 9.51367 6.47386 9.51367 6.34245C9.51367 6.21103 9.53957 6.0809 9.5899 5.95951C9.64022 5.83811 9.71398 5.72782 9.80696 5.63495L12.636 2.80695C12.8235 2.61948 13.0778 2.51416 13.343 2.51416C13.6081 2.51416 13.8624 2.61948 14.05 2.80695L16.88 5.63495L15.464 7.04995L13.343 4.92795L11.929 6.34295L14.05 8.46295L12.636 9.87795Z" fill="#191919"/>
</svg>
