<svg width="48" height="48" viewBox="0 0 48 48" fill="none" xmlns="http://www.w3.org/2000/svg">
<path d="M7.712 41.416V36.016H9.056C9.52 36.016 9.908 36.084 10.22 36.22C10.54 36.348 10.796 36.536 10.988 36.784C11.18 37.032 11.316 37.332 11.396 37.684C11.484 38.028 11.528 38.416 11.528 38.848C11.528 39.32 11.468 39.72 11.348 40.048C11.228 40.376 11.068 40.644 10.868 40.852C10.668 41.052 10.44 41.196 10.184 41.284C9.928 41.372 9.664 41.416 9.392 41.416H7.712ZM5.828 34.432V43H9.524C10.18 43 10.748 42.892 11.228 42.676C11.716 42.452 12.12 42.148 12.44 41.764C12.768 41.38 13.012 40.924 13.172 40.396C13.332 39.868 13.412 39.292 13.412 38.668C13.412 37.956 13.312 37.336 13.112 36.808C12.92 36.28 12.648 35.84 12.296 35.488C11.952 35.136 11.54 34.872 11.06 34.696C10.588 34.52 10.076 34.432 9.524 34.432H5.828ZM18.7185 39.232H15.9465C15.9545 39.112 15.9785 38.976 16.0185 38.824C16.0665 38.672 16.1425 38.528 16.2465 38.392C16.3585 38.256 16.5025 38.144 16.6785 38.056C16.8625 37.96 17.0905 37.912 17.3625 37.912C17.7785 37.912 18.0865 38.024 18.2865 38.248C18.4945 38.472 18.6385 38.8 18.7185 39.232ZM15.9465 40.312H20.4225C20.4545 39.832 20.4145 39.372 20.3025 38.932C20.1905 38.492 20.0065 38.1 19.7505 37.756C19.5025 37.412 19.1825 37.14 18.7905 36.94C18.3985 36.732 17.9385 36.628 17.4105 36.628C16.9385 36.628 16.5065 36.712 16.1145 36.88C15.7305 37.048 15.3985 37.28 15.1185 37.576C14.8385 37.864 14.6225 38.208 14.4705 38.608C14.3185 39.008 14.2425 39.44 14.2425 39.904C14.2425 40.384 14.3145 40.824 14.4585 41.224C14.6105 41.624 14.8225 41.968 15.0945 42.256C15.3665 42.544 15.6985 42.768 16.0905 42.928C16.4825 43.08 16.9225 43.156 17.4105 43.156C18.1145 43.156 18.7145 42.996 19.2105 42.676C19.7065 42.356 20.0745 41.824 20.3145 41.08H18.8145C18.7585 41.272 18.6065 41.456 18.3585 41.632C18.1105 41.8 17.8145 41.884 17.4705 41.884C16.9905 41.884 16.6225 41.76 16.3665 41.512C16.1105 41.264 15.9705 40.864 15.9465 40.312ZM22.7532 40.984H21.1332C21.1492 41.4 21.2412 41.748 21.4092 42.028C21.5852 42.3 21.8052 42.52 22.0692 42.688C22.3412 42.856 22.6492 42.976 22.9932 43.048C23.3372 43.12 23.6892 43.156 24.0492 43.156C24.4012 43.156 24.7452 43.12 25.0812 43.048C25.4252 42.984 25.7292 42.868 25.9932 42.7C26.2572 42.532 26.4692 42.312 26.6292 42.04C26.7972 41.76 26.8812 41.416 26.8812 41.008C26.8812 40.72 26.8252 40.48 26.7132 40.288C26.6012 40.088 26.4532 39.924 26.2692 39.796C26.0852 39.66 25.8732 39.552 25.6332 39.472C25.4012 39.392 25.1612 39.324 24.9132 39.268C24.6732 39.212 24.4372 39.16 24.2052 39.112C23.9732 39.064 23.7652 39.012 23.5812 38.956C23.4052 38.892 23.2612 38.812 23.1492 38.716C23.0372 38.62 22.9812 38.496 22.9812 38.344C22.9812 38.216 23.0132 38.116 23.0772 38.044C23.1412 37.964 23.2172 37.904 23.3052 37.864C23.4012 37.824 23.5052 37.8 23.6172 37.792C23.7292 37.776 23.8332 37.768 23.9292 37.768C24.2332 37.768 24.4972 37.828 24.7212 37.948C24.9452 38.06 25.0692 38.28 25.0932 38.608H26.7132C26.6812 38.224 26.5812 37.908 26.4132 37.66C26.2532 37.404 26.0492 37.2 25.8012 37.048C25.5532 36.896 25.2692 36.788 24.9492 36.724C24.6372 36.66 24.3132 36.628 23.9772 36.628C23.6412 36.628 23.3132 36.66 22.9932 36.724C22.6732 36.78 22.3852 36.884 22.1292 37.036C21.8732 37.18 21.6652 37.38 21.5052 37.636C21.3532 37.892 21.2772 38.22 21.2772 38.62C21.2772 38.892 21.3332 39.124 21.4452 39.316C21.5572 39.5 21.7052 39.656 21.8892 39.784C22.0732 39.904 22.2812 40.004 22.5132 40.084C22.7532 40.156 22.9972 40.22 23.2452 40.276C23.8532 40.404 24.3252 40.532 24.6612 40.66C25.0052 40.788 25.1772 40.98 25.1772 41.236C25.1772 41.388 25.1412 41.516 25.0692 41.62C24.9972 41.716 24.9052 41.796 24.7932 41.86C24.6892 41.916 24.5692 41.96 24.4332 41.992C24.3052 42.016 24.1812 42.028 24.0612 42.028C23.8932 42.028 23.7292 42.008 23.5692 41.968C23.4172 41.928 23.2812 41.868 23.1612 41.788C23.0412 41.7 22.9412 41.592 22.8612 41.464C22.7892 41.328 22.7532 41.168 22.7532 40.984ZM29.6305 35.836V34.432H27.9265V35.836H29.6305ZM27.9265 36.796V43H29.6305V36.796H27.9265ZM33.8642 41.536C33.6002 41.536 33.3802 41.48 33.2042 41.368C33.0282 41.256 32.8842 41.112 32.7722 40.936C32.6682 40.76 32.5922 40.564 32.5442 40.348C32.5042 40.124 32.4842 39.9 32.4842 39.676C32.4842 39.444 32.5082 39.224 32.5562 39.016C32.6122 38.8 32.6962 38.612 32.8082 38.452C32.9282 38.284 33.0722 38.152 33.2402 38.056C33.4162 37.96 33.6242 37.912 33.8642 37.912C34.1442 37.912 34.3762 37.964 34.5602 38.068C34.7442 38.172 34.8922 38.312 35.0042 38.488C35.1162 38.664 35.1962 38.868 35.2442 39.1C35.2922 39.324 35.3162 39.564 35.3162 39.82C35.3162 40.044 35.2842 40.26 35.2202 40.468C35.1642 40.668 35.0762 40.848 34.9562 41.008C34.8362 41.168 34.6842 41.296 34.5002 41.392C34.3162 41.488 34.1042 41.536 33.8642 41.536ZM36.9362 42.604V36.796H35.3162V37.624H35.2922C35.0842 37.264 34.8242 37.008 34.5122 36.856C34.2082 36.704 33.8522 36.628 33.4442 36.628C33.0122 36.628 32.6282 36.712 32.2922 36.88C31.9642 37.048 31.6882 37.276 31.4642 37.564C31.2402 37.844 31.0682 38.172 30.9482 38.548C30.8362 38.916 30.7802 39.3 30.7802 39.7C30.7802 40.124 30.8282 40.528 30.9242 40.912C31.0282 41.288 31.1882 41.62 31.4042 41.908C31.6202 42.188 31.8962 42.412 32.2322 42.58C32.5682 42.74 32.9682 42.82 33.4322 42.82C33.8082 42.82 34.1642 42.744 34.5002 42.592C34.8442 42.432 35.1082 42.188 35.2922 41.86H35.3162V42.676C35.3242 43.116 35.2162 43.48 34.9922 43.768C34.7762 44.056 34.4282 44.2 33.9482 44.2C33.6442 44.2 33.3762 44.136 33.1442 44.008C32.9122 43.888 32.7562 43.668 32.6762 43.348H30.9842C31.0082 43.7 31.1042 44 31.2722 44.248C31.4482 44.504 31.6642 44.712 31.9202 44.872C32.1842 45.032 32.4722 45.148 32.7842 45.22C33.1042 45.3 33.4162 45.34 33.7202 45.34C34.4322 45.34 35.0002 45.244 35.4242 45.052C35.8482 44.86 36.1722 44.624 36.3962 44.344C36.6202 44.072 36.7642 43.776 36.8282 43.456C36.9002 43.136 36.9362 42.852 36.9362 42.604ZM38.3082 36.796V43H40.0122V39.748C40.0122 39.116 40.1162 38.664 40.3242 38.392C40.5322 38.112 40.8682 37.972 41.3322 37.972C41.7402 37.972 42.0242 38.1 42.1842 38.356C42.3442 38.604 42.4242 38.984 42.4242 39.496V43H44.1282V39.184C44.1282 38.8 44.0922 38.452 44.0202 38.14C43.9562 37.82 43.8402 37.552 43.6722 37.336C43.5042 37.112 43.2722 36.94 42.9762 36.82C42.6882 36.692 42.3162 36.628 41.8602 36.628C41.5002 36.628 41.1482 36.712 40.8042 36.88C40.4602 37.04 40.1802 37.3 39.9642 37.66H39.9282V36.796H38.3082Z" fill="#1D72A3"/>
<path d="M19.05 14.1209L16.93 16.2429L19.758 19.0709L31.071 7.75695L28.243 4.92995L26.12 7.04995L27.535 8.46395L26.12 9.87995L24.706 8.46495L23.292 9.87995L24.706 11.2939L23.292 12.7079L21.878 11.2939L20.463 12.7079L21.878 14.1219L20.463 15.5369L19.05 14.1199V14.1209ZM28.95 2.80795L33.192 7.04995C33.3794 7.23747 33.4847 7.49178 33.4847 7.75695C33.4847 8.02211 33.3794 8.27642 33.192 8.46395L20.464 21.1919C20.2764 21.3794 20.0221 21.4847 19.757 21.4847C19.4918 21.4847 19.2375 21.3794 19.05 21.1919L14.808 16.9499C14.6205 16.7624 14.5152 16.5081 14.5152 16.2429C14.5152 15.9778 14.6205 15.7235 14.808 15.5359L27.536 2.80795C27.7235 2.62048 27.9778 2.51516 28.243 2.51516C28.5081 2.51516 28.7624 2.62048 28.95 2.80795ZM26.12 18.3629L27.535 16.9489L29.777 19.1919H31.191V17.7779L28.949 15.5349L30.363 14.1209L33 16.7569V20.9999H28.758L26.121 18.3629H26.12ZM17.636 9.87795L14.807 7.04995C14.714 6.95707 14.6402 6.84679 14.5899 6.72539C14.5396 6.60399 14.5137 6.47386 14.5137 6.34245C14.5137 6.21103 14.5396 6.0809 14.5899 5.95951C14.6402 5.83811 14.714 5.72782 14.807 5.63495L17.636 2.80695C17.8235 2.61948 18.0778 2.51416 18.343 2.51416C18.6081 2.51416 18.8624 2.61948 19.05 2.80695L21.88 5.63495L20.464 7.04995L18.343 4.92795L16.929 6.34295L19.05 8.46295L17.636 9.87795V9.87795Z" fill="#1D72A3"/>
</svg>
