<svg width="36" height="43" viewBox="0 0 36 43" fill="none" xmlns="http://www.w3.org/2000/svg">
<path d="M12.704 11.896C14.9653 11.896 16.9387 12.3547 18.624 13.272C20.3307 14.1893 21.6533 15.5227 22.592 17.272C23.5307 19 24 21.0693 24 23.48C24 25.8267 23.52 27.9067 22.56 29.72C21.6 31.5333 20.256 32.9413 18.528 33.944C16.8213 34.9467 14.8693 35.448 12.672 35.448C10.4107 35.448 8.42667 34.9893 6.72 34.072C5.03467 33.1547 3.72267 31.832 2.784 30.104C1.84533 28.3547 1.376 26.2747 1.376 23.864C1.376 21.5173 1.856 19.4373 2.816 17.624C3.776 15.8107 5.10933 14.4027 6.816 13.4C8.544 12.3973 10.5067 11.896 12.704 11.896ZM12.576 12.472C11.4027 12.472 10.368 12.952 9.472 13.912C8.576 14.8507 7.88267 16.1733 7.392 17.88C6.92267 19.5867 6.688 21.5387 6.688 23.736C6.688 25.9547 6.95467 27.9067 7.488 29.592C8.04267 31.2773 8.77867 32.5787 9.696 33.496C10.6347 34.4133 11.6693 34.872 12.8 34.872C13.9733 34.872 15.008 34.4027 15.904 33.464C16.8 32.504 17.4827 31.1707 17.952 29.464C18.4427 27.7573 18.688 25.8053 18.688 23.608C18.688 21.3893 18.4107 19.4373 17.856 17.752C17.3227 16.0667 16.5867 14.7653 15.648 13.848C14.7307 12.9307 13.7067 12.472 12.576 12.472Z" fill="#191919"/>
<path d="M22.704 11.896C24.9653 11.896 26.9387 12.3547 28.624 13.272C30.3307 14.1893 31.6533 15.5227 32.592 17.272C33.5307 19 34 21.0693 34 23.48C34 25.8267 33.52 27.9067 32.56 29.72C31.6 31.5333 30.256 32.9413 28.528 33.944C26.8213 34.9467 24.8693 35.448 22.672 35.448C20.4107 35.448 18.4267 34.9893 16.72 34.072C15.0347 33.1547 13.7227 31.832 12.784 30.104C11.8453 28.3547 11.376 26.2747 11.376 23.864C11.376 21.5173 11.856 19.4373 12.816 17.624C13.776 15.8107 15.1093 14.4027 16.816 13.4C18.544 12.3973 20.5067 11.896 22.704 11.896ZM22.576 12.472C21.4027 12.472 20.368 12.952 19.472 13.912C18.576 14.8507 17.8827 16.1733 17.392 17.88C16.9227 19.5867 16.688 21.5387 16.688 23.736C16.688 25.9547 16.9547 27.9067 17.488 29.592C18.0427 31.2773 18.7787 32.5787 19.696 33.496C20.6347 34.4133 21.6693 34.872 22.8 34.872C23.9733 34.872 25.008 34.4027 25.904 33.464C26.8 32.504 27.4827 31.1707 27.952 29.464C28.4427 27.7573 28.688 25.8053 28.688 23.608C28.688 21.3893 28.4107 19.4373 27.856 17.752C27.3227 16.0667 26.5867 14.7653 25.648 13.848C24.7307 12.9307 23.7067 12.472 22.576 12.472Z" fill="#191919"/>
</svg>
