<svg width="14" height="14" viewBox="0 0 14 14" fill="none" xmlns="http://www.w3.org/2000/svg">
<path d="M13.1483 3.74492C13.0791 3.46807 12.9379 3.21442 12.7392 3.00957C12.5405 2.80473 12.2913 2.65594 12.0167 2.57825C11.0133 2.33325 7.00001 2.33325 7.00001 2.33325C7.00001 2.33325 2.98668 2.33325 1.98334 2.60159C1.70874 2.67928 1.45949 2.82806 1.26079 3.03291C1.06209 3.23775 0.920968 3.49141 0.851675 3.76825C0.66805 4.78649 0.578229 5.81943 0.583341 6.85408C0.576796 7.89653 0.666622 8.93734 0.851675 9.96325C0.928068 10.2315 1.07235 10.4755 1.27059 10.6717C1.46883 10.8679 1.71432 11.0096 1.98334 11.0833C2.98668 11.3516 7.00001 11.3516 7.00001 11.3516C7.00001 11.3516 11.0133 11.3516 12.0167 11.0833C12.2913 11.0056 12.5405 10.8568 12.7392 10.6519C12.9379 10.4471 13.0791 10.1934 13.1483 9.91658C13.3306 8.90601 13.4204 7.88095 13.4167 6.85408C13.4232 5.81164 13.3334 4.77083 13.1483 3.74492V3.74492Z" stroke="#191919" stroke-linecap="round" stroke-linejoin="round"/>
<path d="M5.6875 8.76178L9.04167 6.85428L5.6875 4.94678V8.76178Z" stroke="#191919" stroke-linecap="round" stroke-linejoin="round"/>
</svg>
