<svg width="48" height="48" viewBox="0 0 48 48" fill="none" xmlns="http://www.w3.org/2000/svg">
<path d="M4.412 38.46L5.864 34.464H5.888L7.316 38.46H4.412ZM5.264 33.432L1.928 42H3.092L4.052 39.42H7.676L8.612 42H9.872L6.524 33.432H5.264ZM14.7613 37.788H15.8173C15.7773 37.42 15.6813 37.104 15.5293 36.84C15.3773 36.568 15.1813 36.344 14.9413 36.168C14.7093 35.992 14.4373 35.864 14.1253 35.784C13.8213 35.696 13.4933 35.652 13.1413 35.652C12.6533 35.652 12.2253 35.74 11.8573 35.916C11.4893 36.084 11.1813 36.32 10.9333 36.624C10.6933 36.92 10.5133 37.272 10.3933 37.68C10.2733 38.08 10.2133 38.512 10.2133 38.976C10.2133 39.44 10.2733 39.868 10.3933 40.26C10.5213 40.644 10.7053 40.976 10.9453 41.256C11.1933 41.536 11.4973 41.752 11.8573 41.904C12.2253 42.056 12.6453 42.132 13.1173 42.132C13.9093 42.132 14.5333 41.924 14.9893 41.508C15.4533 41.092 15.7413 40.5 15.8533 39.732H14.8093C14.7453 40.212 14.5693 40.584 14.2813 40.848C14.0013 41.112 13.6093 41.244 13.1053 41.244C12.7853 41.244 12.5093 41.18 12.2773 41.052C12.0453 40.924 11.8573 40.756 11.7133 40.548C11.5693 40.332 11.4613 40.088 11.3893 39.816C11.3253 39.544 11.2933 39.264 11.2933 38.976C11.2933 38.664 11.3253 38.364 11.3893 38.076C11.4533 37.78 11.5573 37.52 11.7013 37.296C11.8533 37.072 12.0533 36.892 12.3013 36.756C12.5493 36.62 12.8573 36.552 13.2253 36.552C13.6573 36.552 14.0013 36.66 14.2573 36.876C14.5133 37.092 14.6813 37.396 14.7613 37.788ZM21.2066 37.788H22.2626C22.2226 37.42 22.1266 37.104 21.9746 36.84C21.8226 36.568 21.6266 36.344 21.3866 36.168C21.1546 35.992 20.8826 35.864 20.5706 35.784C20.2666 35.696 19.9386 35.652 19.5866 35.652C19.0986 35.652 18.6706 35.74 18.3026 35.916C17.9346 36.084 17.6266 36.32 17.3786 36.624C17.1386 36.92 16.9586 37.272 16.8386 37.68C16.7186 38.08 16.6586 38.512 16.6586 38.976C16.6586 39.44 16.7186 39.868 16.8386 40.26C16.9666 40.644 17.1506 40.976 17.3906 41.256C17.6386 41.536 17.9426 41.752 18.3026 41.904C18.6706 42.056 19.0906 42.132 19.5626 42.132C20.3546 42.132 20.9786 41.924 21.4346 41.508C21.8986 41.092 22.1866 40.5 22.2986 39.732H21.2546C21.1906 40.212 21.0146 40.584 20.7266 40.848C20.4466 41.112 20.0546 41.244 19.5506 41.244C19.2306 41.244 18.9546 41.18 18.7226 41.052C18.4906 40.924 18.3026 40.756 18.1586 40.548C18.0146 40.332 17.9066 40.088 17.8346 39.816C17.7706 39.544 17.7386 39.264 17.7386 38.976C17.7386 38.664 17.7706 38.364 17.8346 38.076C17.8986 37.78 18.0026 37.52 18.1466 37.296C18.2986 37.072 18.4986 36.892 18.7466 36.756C18.9946 36.62 19.3026 36.552 19.6706 36.552C20.1026 36.552 20.4466 36.66 20.7026 36.876C20.9586 37.092 21.1266 37.396 21.2066 37.788ZM27.7479 38.304H24.1839C24.1999 38.064 24.2519 37.84 24.3399 37.632C24.4279 37.416 24.5479 37.228 24.6999 37.068C24.8519 36.908 25.0319 36.784 25.2399 36.696C25.4559 36.6 25.6959 36.552 25.9599 36.552C26.2159 36.552 26.4479 36.6 26.6559 36.696C26.8719 36.784 27.0559 36.908 27.2079 37.068C27.3679 37.22 27.4919 37.404 27.5799 37.62C27.6759 37.836 27.7319 38.064 27.7479 38.304ZM28.7319 40.032H27.7239C27.6359 40.44 27.4519 40.744 27.1719 40.944C26.8999 41.144 26.5479 41.244 26.1159 41.244C25.7799 41.244 25.4879 41.188 25.2399 41.076C24.9919 40.964 24.7879 40.816 24.6279 40.632C24.4679 40.44 24.3519 40.224 24.2799 39.984C24.2079 39.736 24.1759 39.476 24.1839 39.204H28.8279C28.8439 38.828 28.8079 38.432 28.7199 38.016C28.6399 37.6 28.4879 37.216 28.2639 36.864C28.0479 36.512 27.7559 36.224 27.3879 36C27.0279 35.768 26.5719 35.652 26.0199 35.652C25.5959 35.652 25.2039 35.732 24.8439 35.892C24.4919 36.052 24.1839 36.276 23.9199 36.564C23.6639 36.852 23.4639 37.192 23.3199 37.584C23.1759 37.976 23.1039 38.408 23.1039 38.88C23.1199 39.352 23.1879 39.788 23.3079 40.188C23.4359 40.588 23.6239 40.932 23.8719 41.22C24.1199 41.508 24.4239 41.732 24.7839 41.892C25.1519 42.052 25.5839 42.132 26.0799 42.132C26.7839 42.132 27.3679 41.956 27.8319 41.604C28.2959 41.252 28.5959 40.728 28.7319 40.032ZM35.0212 42V35.796H34.0012V39.3C34.0012 39.58 33.9612 39.84 33.8812 40.08C33.8092 40.312 33.6972 40.516 33.5452 40.692C33.3932 40.868 33.2012 41.004 32.9692 41.1C32.7452 41.196 32.4772 41.244 32.1652 41.244C31.7732 41.244 31.4652 41.132 31.2412 40.908C31.0172 40.684 30.9052 40.38 30.9052 39.996V35.796H29.8852V39.876C29.8852 40.212 29.9172 40.52 29.9812 40.8C30.0532 41.072 30.1732 41.308 30.3412 41.508C30.5092 41.708 30.7292 41.864 31.0012 41.976C31.2732 42.08 31.6132 42.132 32.0212 42.132C32.4772 42.132 32.8732 42.044 33.2092 41.868C33.5452 41.684 33.8212 41.4 34.0372 41.016H34.0612V42H35.0212ZM37.6332 34.68V33.432H36.6132V34.68H37.6332ZM36.6132 35.796V42H37.6332V35.796H36.6132ZM39.2733 33.432V42H40.2933V33.432H39.2733Z" fill="#191919"/>
<path d="M29 20.9999H15C14.7348 20.9999 14.4804 20.8946 14.2929 20.707C14.1054 20.5195 14 20.2651 14 19.9999V10.9999H11L21.327 1.61192C21.5111 1.4444 21.7511 1.35156 22 1.35156C22.2489 1.35156 22.4889 1.4444 22.673 1.61192L33 10.9999H30V19.9999C30 20.2651 29.8946 20.5195 29.7071 20.707C29.5196 20.8946 29.2652 20.9999 29 20.9999ZM23 18.9999H28V9.15692L22 3.70292L16 9.15692V18.9999H21V12.9999H23V18.9999Z" fill="#191919"/>
</svg>
