<svg width="132" height="70" viewBox="0 0 132 70" fill="none" xmlns="http://www.w3.org/2000/svg">
<path d="M35.76 15.48C34.8533 15.5333 34.2 15.64 33.8 15.8C33.4 15.96 33.12 16.2667 32.96 16.72C32.8267 17.1733 32.76 17.9067 32.76 18.92V38.76C32.76 39.7733 32.8267 40.5067 32.96 40.96C33.12 41.4133 33.4 41.72 33.8 41.88C34.2267 42.04 34.88 42.1467 35.76 42.2V43C34.2933 42.92 32.2 42.88 29.48 42.88C26.6267 42.88 24.52 42.92 23.16 43V42.2C24.12 42.1467 24.8133 42.04 25.24 41.88C25.6933 41.72 26 41.4133 26.16 40.96C26.32 40.5067 26.4 39.7733 26.4 38.76V17.84L16.76 43.04H16.12L5.32 17.28V36.44C5.32 38.0133 5.4 39.1733 5.56 39.92C5.72 40.64 6.06667 41.1733 6.6 41.52C7.13333 41.84 8 42.0667 9.2 42.2V43C8.16 42.92 6.72 42.88 4.88 42.88C3.41333 42.88 2.25333 42.92 1.4 43V42.2C2.28 42.0667 2.92 41.84 3.32 41.52C3.74667 41.2 4.02667 40.6933 4.16 40C4.32 39.3067 4.4 38.28 4.4 36.92V18.92C4.4 17.9067 4.32 17.1733 4.16 16.72C4.02667 16.2667 3.74667 15.96 3.32 15.8C2.92 15.64 2.28 15.5333 1.4 15.48V14.68C2.25333 14.76 3.41333 14.8 4.88 14.8C7.33333 14.8 9.44 14.76 11.2 14.68L19.28 34.16L26.64 14.8H29.48C32.2 14.8 34.2933 14.76 35.76 14.68V15.48Z" fill="#191919"/>
<path d="M51.88 14.12C54.7067 14.12 57.1733 14.6933 59.28 15.84C61.4133 16.9867 63.0667 18.6533 64.24 20.84C65.4133 23 66 25.5867 66 28.6C66 31.5333 65.4 34.1333 64.2 36.4C63 38.6667 61.32 40.4267 59.16 41.68C57.0267 42.9333 54.5867 43.56 51.84 43.56C49.0133 43.56 46.5333 42.9867 44.4 41.84C42.2933 40.6933 40.6533 39.04 39.48 36.88C38.3067 34.6933 37.72 32.0933 37.72 29.08C37.72 26.1467 38.32 23.5467 39.52 21.28C40.72 19.0133 42.3867 17.2533 44.52 16C46.68 14.7467 49.1333 14.12 51.88 14.12ZM51.72 14.84C50.2533 14.84 48.96 15.44 47.84 16.64C46.72 17.8133 45.8533 19.4667 45.24 21.6C44.6533 23.7333 44.36 26.1733 44.36 28.92C44.36 31.6933 44.6933 34.1333 45.36 36.24C46.0533 38.3467 46.9733 39.9733 48.12 41.12C49.2933 42.2667 50.5867 42.84 52 42.84C53.4667 42.84 54.76 42.2533 55.88 41.08C57 39.88 57.8533 38.2133 58.44 36.08C59.0533 33.9467 59.36 31.5067 59.36 28.76C59.36 25.9867 59.0133 23.5467 58.32 21.44C57.6533 19.3333 56.7333 17.7067 55.56 16.56C54.4133 15.4133 53.1333 14.84 51.72 14.84Z" fill="#191919"/>
<path d="M62.88 14.12C65.7067 14.12 68.1733 14.6933 70.28 15.84C72.4133 16.9867 74.0667 18.6533 75.24 20.84C76.4133 23 77 25.5867 77 28.6C77 31.5333 76.4 34.1333 75.2 36.4C74 38.6667 72.32 40.4267 70.16 41.68C68.0267 42.9333 65.5867 43.56 62.84 43.56C60.0133 43.56 57.5333 42.9867 55.4 41.84C53.2933 40.6933 51.6533 39.04 50.48 36.88C49.3067 34.6933 48.72 32.0933 48.72 29.08C48.72 26.1467 49.32 23.5467 50.52 21.28C51.72 19.0133 53.3867 17.2533 55.52 16C57.68 14.7467 60.1333 14.12 62.88 14.12ZM62.72 14.84C61.2533 14.84 59.96 15.44 58.84 16.64C57.72 17.8133 56.8533 19.4667 56.24 21.6C55.6533 23.7333 55.36 26.1733 55.36 28.92C55.36 31.6933 55.6933 34.1333 56.36 36.24C57.0533 38.3467 57.9733 39.9733 59.12 41.12C60.2933 42.2667 61.5867 42.84 63 42.84C64.4667 42.84 65.76 42.2533 66.88 41.08C68 39.88 68.8533 38.2133 69.44 36.08C70.0533 33.9467 70.36 31.5067 70.36 28.76C70.36 25.9867 70.0133 23.5467 69.32 21.44C68.6533 19.3333 67.7333 17.7067 66.56 16.56C65.4133 15.4133 64.1333 14.84 62.72 14.84Z" fill="#191919"/>
<path d="M90.72 14.68C95.92 14.68 99.8133 15.8667 102.4 18.24C104.987 20.5867 106.28 24.0133 106.28 28.52C106.28 31.4267 105.64 33.9733 104.36 36.16C103.107 38.32 101.28 40 98.88 41.2C96.5067 42.4 93.6667 43 90.36 43L87.88 42.96C86.3333 42.9067 85.2133 42.88 84.52 42.88C81.7733 42.88 79.72 42.92 78.36 43V42.2C79.24 42.1467 79.88 42.04 80.28 41.88C80.7067 41.72 80.9867 41.4133 81.12 40.96C81.28 40.5067 81.36 39.7733 81.36 38.76V18.92C81.36 17.9067 81.28 17.1733 81.12 16.72C80.9867 16.2667 80.7067 15.96 80.28 15.8C79.88 15.64 79.24 15.5333 78.36 15.48V14.68C79.48 14.76 81.0933 14.8 83.2 14.8H84.44L86.04 14.76C88.2267 14.7067 89.7867 14.68 90.72 14.68ZM90.68 15.4C89.8533 15.4 89.2267 15.4933 88.8 15.68C88.4 15.8667 88.12 16.2 87.96 16.68C87.8 17.16 87.72 17.88 87.72 18.84V38.84C87.72 39.8 87.8 40.52 87.96 41C88.12 41.48 88.4 41.8133 88.8 42C89.2267 42.1867 89.8667 42.28 90.72 42.28C93.9467 42.28 96.24 41.16 97.6 38.92C98.96 36.6533 99.64 33.24 99.64 28.68C99.64 24.12 98.9333 20.7733 97.52 18.64C96.1333 16.48 93.8533 15.4 90.68 15.4Z" fill="#191919"/>
<path d="M129.28 36.92C129.28 39.3733 129.373 41.4 129.56 43C127.747 42.92 124.693 42.88 120.4 42.88C114.587 42.88 110.24 42.92 107.36 43V42.2C108.24 42.1467 108.88 42.04 109.28 41.88C109.707 41.72 109.987 41.4133 110.12 40.96C110.28 40.5067 110.36 39.7733 110.36 38.76V18.92C110.36 17.9067 110.28 17.1733 110.12 16.72C109.987 16.2667 109.707 15.96 109.28 15.8C108.88 15.64 108.24 15.5333 107.36 15.48V14.68C110.24 14.76 114.587 14.8 120.4 14.8C124.32 14.8 127.107 14.76 128.76 14.68C128.573 16.8933 128.48 18.8667 128.48 20.6C128.48 21.7733 128.52 22.68 128.6 23.32H127.68C127.28 20.4667 126.56 18.4667 125.52 17.32C124.48 16.1733 123.013 15.6 121.12 15.6H119.48C118.653 15.6 118.053 15.6667 117.68 15.8C117.307 15.9333 117.053 16.2 116.92 16.6C116.787 16.9733 116.72 17.5867 116.72 18.44V28.36H118C119.413 28.36 120.48 27.84 121.2 26.8C121.947 25.76 122.467 24.52 122.76 23.08H123.68C123.6 24.2 123.56 25.4533 123.56 26.84V28.76C123.56 30.12 123.64 32.0133 123.8 34.44H122.88C122.32 30.92 120.693 29.16 118 29.16H116.72V39.24C116.72 40.0933 116.787 40.72 116.92 41.12C117.053 41.4933 117.307 41.7467 117.68 41.88C118.053 42.0133 118.653 42.08 119.48 42.08H121.44C123.333 42.08 124.853 41.44 126 40.16C127.173 38.8533 128 36.6533 128.48 33.56H129.4C129.32 34.44 129.28 35.56 129.28 36.92Z" fill="#191919"/>
<path d="M44.288 61.424V64.208C44.288 64.6347 44.3307 64.9493 44.416 65.152C44.512 65.344 44.672 65.472 44.896 65.536C45.1307 65.6 45.4987 65.6373 46 65.648V66C44.688 65.968 43.712 65.952 43.072 65.952C42.5387 65.952 41.8667 65.9627 41.056 65.984L40.544 66V65.68C40.896 65.6587 41.152 65.616 41.312 65.552C41.4827 65.488 41.5947 65.3653 41.648 65.184C41.712 65.0027 41.744 64.7093 41.744 64.304V56.368C41.744 55.9627 41.712 55.6693 41.648 55.488C41.5947 55.3067 41.4827 55.184 41.312 55.12C41.152 55.056 40.896 55.0133 40.544 54.992V54.672C41.088 54.704 41.8987 54.72 42.976 54.72L44.752 54.704C44.9653 54.6933 45.2107 54.688 45.488 54.688C46.928 54.688 48.0267 54.976 48.784 55.552C49.5413 56.1173 49.92 56.88 49.92 57.84C49.92 58.4267 49.7707 58.992 49.472 59.536C49.1733 60.0693 48.6667 60.5173 47.952 60.88C47.248 61.2427 46.3093 61.424 45.136 61.424H44.288ZM45.28 54.992C44.992 54.992 44.7787 55.0293 44.64 55.104C44.512 55.1787 44.4213 55.312 44.368 55.504C44.3147 55.696 44.288 55.984 44.288 56.368V61.104H44.976C45.84 61.104 46.4373 60.8267 46.768 60.272C47.0987 59.7173 47.264 58.9653 47.264 58.016C47.264 56.9813 47.1093 56.2187 46.8 55.728C46.5013 55.2373 45.9947 54.992 45.28 54.992ZM59.1198 64.656C59.2584 65.008 59.4184 65.264 59.5998 65.424C59.7811 65.584 59.9571 65.6693 60.1278 65.68V66C59.4878 65.968 58.6771 65.952 57.6958 65.952C56.6078 65.952 55.7971 65.968 55.2638 66V65.68C55.6691 65.6587 55.9571 65.6107 56.1278 65.536C56.2984 65.4507 56.3838 65.3067 56.3838 65.104C56.3838 64.912 56.3198 64.656 56.1918 64.336L55.2318 61.712H51.7438L51.3278 62.816C51.0291 63.584 50.8798 64.176 50.8798 64.592C50.8798 64.9867 50.9971 65.264 51.2318 65.424C51.4771 65.5733 51.8344 65.6587 52.3038 65.68V66C51.5784 65.968 50.9171 65.952 50.3198 65.952C49.8291 65.952 49.4238 65.968 49.1037 66V65.68C49.6264 65.584 50.0851 65.024 50.4798 64L54.1278 54.64C54.2451 54.6507 54.4318 54.656 54.6878 54.656C54.9438 54.656 55.1251 54.6507 55.2318 54.64L59.1198 64.656ZM55.1198 61.392L53.5358 57.072L51.8718 61.392H55.1198ZM71.0951 65.296C70.8071 65.6267 70.4978 65.8613 70.1671 66C69.8365 66.1493 69.4365 66.224 68.9671 66.224C68.3485 66.224 67.8578 66.096 67.4951 65.84C67.1431 65.5733 66.9138 65.1253 66.8071 64.496L66.5191 62.896C66.3805 62.1173 66.2098 61.5467 66.0071 61.184C65.8151 60.8107 65.4898 60.624 65.0311 60.624H63.9911V64.304C63.9911 64.7093 64.0178 65.0027 64.0711 65.184C64.1351 65.3653 64.2471 65.488 64.4071 65.552C64.5671 65.616 64.8285 65.6587 65.1911 65.68V66C64.6151 65.968 63.8098 65.952 62.7751 65.952C61.6338 65.952 60.7911 65.968 60.2471 66V65.68C60.5991 65.6587 60.8551 65.616 61.0151 65.552C61.1858 65.488 61.2978 65.3653 61.3511 65.184C61.4151 65.0027 61.4471 64.7093 61.4471 64.304V56.368C61.4471 55.9627 61.4151 55.6693 61.3511 55.488C61.2978 55.3067 61.1858 55.184 61.0151 55.12C60.8551 55.056 60.5991 55.0133 60.2471 54.992V54.672C60.7911 54.704 61.6018 54.72 62.6791 54.72L64.4551 54.704C64.6685 54.6933 64.9138 54.688 65.1911 54.688C66.6631 54.688 67.7671 54.928 68.5031 55.408C69.2498 55.888 69.6231 56.576 69.6231 57.472C69.6231 58.2293 69.3458 58.896 68.7911 59.472C68.2365 60.048 67.3191 60.4107 66.0391 60.56C66.9991 60.6453 67.7138 60.8533 68.1831 61.184C68.6525 61.5147 68.9565 62.0107 69.0951 62.672L69.4631 64.32C69.5485 64.7467 69.6445 65.0453 69.7511 65.216C69.8685 65.3867 70.0285 65.472 70.2311 65.472C70.3591 65.4613 70.4658 65.4293 70.5511 65.376C70.6471 65.3227 70.7538 65.232 70.8711 65.104L71.0951 65.296ZM64.9831 54.992C64.6951 54.992 64.4818 55.0293 64.3431 55.104C64.2151 55.1787 64.1245 55.312 64.0711 55.504C64.0178 55.696 63.9911 55.984 63.9911 56.368V60.304H64.6791C65.5538 60.304 66.1511 60.0747 66.4711 59.616C66.8018 59.1467 66.9671 58.4907 66.9671 57.648C66.9671 56.7733 66.8125 56.112 66.5031 55.664C66.1938 55.216 65.6871 54.992 64.9831 54.992ZM76.2693 54.992C75.9066 55.0133 75.6453 55.056 75.4852 55.12C75.3253 55.184 75.2133 55.3067 75.1493 55.488C75.0959 55.6693 75.0693 55.9627 75.0693 56.368V64.304C75.0693 64.7093 75.0959 65.0027 75.1493 65.184C75.2133 65.3653 75.3253 65.488 75.4852 65.552C75.6453 65.616 75.9066 65.6587 76.2693 65.68V66C75.6933 65.968 74.8879 65.952 73.8533 65.952C72.7119 65.952 71.8693 65.968 71.3253 66V65.68C71.6773 65.6587 71.9333 65.616 72.0933 65.552C72.2639 65.488 72.3759 65.3653 72.4293 65.184C72.4933 65.0027 72.5253 64.7093 72.5253 64.304V56.368C72.5253 55.9627 72.4933 55.6693 72.4293 55.488C72.3759 55.3067 72.2639 55.184 72.0933 55.12C71.9333 55.056 71.6773 55.0133 71.3253 54.992V54.672C71.8693 54.704 72.7119 54.72 73.8533 54.72C74.8879 54.72 75.6933 54.704 76.2693 54.672V54.992ZM81.3409 54.464C81.8955 54.464 82.3382 54.5173 82.6689 54.624C82.9995 54.7307 83.3355 54.8853 83.6769 55.088C83.7942 55.152 83.8955 55.2053 83.9809 55.248C84.0769 55.2907 84.1569 55.312 84.2209 55.312C84.3169 55.312 84.3915 55.2587 84.4449 55.152C84.4982 55.0347 84.5409 54.8533 84.5729 54.608H84.9409C84.8875 55.3227 84.8609 56.5387 84.8609 58.256H84.4929C84.4502 57.68 84.3169 57.1307 84.0929 56.608C83.8795 56.0853 83.5702 55.664 83.1649 55.344C82.7702 55.0133 82.3062 54.848 81.7729 54.848C81.2502 54.848 80.8235 54.9973 80.4929 55.296C80.1729 55.584 80.0129 55.9787 80.0129 56.48C80.0129 56.8533 80.0929 57.1787 80.2529 57.456C80.4129 57.7333 80.6369 57.9893 80.9249 58.224C81.2129 58.448 81.6555 58.7573 82.2529 59.152L82.7649 59.504C83.3942 59.92 83.8902 60.2827 84.2529 60.592C84.6155 60.9013 84.9089 61.264 85.1329 61.68C85.3675 62.0853 85.4849 62.56 85.4849 63.104C85.4849 63.7867 85.3089 64.3627 84.9569 64.832C84.6049 65.2907 84.1249 65.6373 83.5169 65.872C82.9195 66.1067 82.2529 66.224 81.5169 66.224C80.9195 66.224 80.4235 66.1707 80.0289 66.064C79.6342 65.9573 79.2715 65.8133 78.9409 65.632C78.7062 65.4827 78.5249 65.408 78.3969 65.408C78.3009 65.408 78.2262 65.4667 78.1729 65.584C78.1195 65.6907 78.0769 65.8667 78.0449 66.112H77.6769C77.7195 65.44 77.7409 64 77.7409 61.792H78.1089C78.1835 62.9867 78.4502 63.9573 78.9089 64.704C79.3675 65.44 80.0715 65.808 81.0209 65.808C81.5969 65.808 82.0715 65.6533 82.4449 65.344C82.8182 65.0347 83.0049 64.592 83.0049 64.016C83.0049 63.4187 82.8129 62.9067 82.4289 62.48C82.0449 62.0533 81.4369 61.5733 80.6049 61.04C79.9649 60.624 79.4529 60.2613 79.0689 59.952C78.6849 59.6427 78.3702 59.28 78.1249 58.864C77.8795 58.4373 77.7569 57.9467 77.7569 57.392C77.7569 56.752 77.9169 56.2133 78.2369 55.776C78.5675 55.328 79.0049 54.9973 79.5489 54.784C80.0929 54.5707 80.6902 54.464 81.3409 54.464Z" fill="#191919"/>
</svg>
