<svg width="48" height="48" viewBox="0 0 48 48" fill="none" xmlns="http://www.w3.org/2000/svg">
<path d="M9.076 37.536V34.392H11.308C11.956 34.392 12.428 34.528 12.724 34.8C13.028 35.064 13.18 35.452 13.18 35.964C13.18 36.476 13.028 36.868 12.724 37.14C12.428 37.412 11.956 37.544 11.308 37.536H9.076ZM7.936 33.432V42H9.076V38.496H11.692C12.556 38.504 13.208 38.284 13.648 37.836C14.096 37.388 14.32 36.764 14.32 35.964C14.32 35.164 14.096 34.544 13.648 34.104C13.208 33.656 12.556 33.432 11.692 33.432H7.936ZM21.0453 41.976C20.8693 42.08 20.6253 42.132 20.3133 42.132C20.0493 42.132 19.8373 42.06 19.6773 41.916C19.5253 41.764 19.4493 41.52 19.4493 41.184C19.1693 41.52 18.8413 41.764 18.4653 41.916C18.0973 42.06 17.6973 42.132 17.2653 42.132C16.9853 42.132 16.7173 42.1 16.4613 42.036C16.2133 41.972 15.9973 41.872 15.8133 41.736C15.6293 41.6 15.4813 41.424 15.3693 41.208C15.2653 40.984 15.2133 40.716 15.2133 40.404C15.2133 40.052 15.2733 39.764 15.3933 39.54C15.5133 39.316 15.6693 39.136 15.8613 39C16.0613 38.856 16.2853 38.748 16.5333 38.676C16.7893 38.604 17.0493 38.544 17.3133 38.496C17.5933 38.44 17.8573 38.4 18.1053 38.376C18.3613 38.344 18.5853 38.304 18.7773 38.256C18.9693 38.2 19.1213 38.124 19.2333 38.028C19.3453 37.924 19.4013 37.776 19.4013 37.584C19.4013 37.36 19.3573 37.18 19.2693 37.044C19.1893 36.908 19.0813 36.804 18.9453 36.732C18.8173 36.66 18.6693 36.612 18.5013 36.588C18.3413 36.564 18.1813 36.552 18.0213 36.552C17.5893 36.552 17.2293 36.636 16.9413 36.804C16.6533 36.964 16.4973 37.272 16.4733 37.728H15.4533C15.4693 37.344 15.5493 37.02 15.6933 36.756C15.8373 36.492 16.0293 36.28 16.2693 36.12C16.5093 35.952 16.7813 35.832 17.0853 35.76C17.3973 35.688 17.7293 35.652 18.0813 35.652C18.3613 35.652 18.6373 35.672 18.9093 35.712C19.1893 35.752 19.4413 35.836 19.6653 35.964C19.8893 36.084 20.0693 36.256 20.2053 36.48C20.3413 36.704 20.4093 36.996 20.4093 37.356V40.548C20.4093 40.788 20.4213 40.964 20.4453 41.076C20.4773 41.188 20.5733 41.244 20.7333 41.244C20.8213 41.244 20.9253 41.224 21.0453 41.184V41.976ZM19.3893 38.796C19.2613 38.892 19.0933 38.964 18.8853 39.012C18.6773 39.052 18.4573 39.088 18.2253 39.12C18.0013 39.144 17.7733 39.176 17.5413 39.216C17.3093 39.248 17.1013 39.304 16.9173 39.384C16.7333 39.464 16.5813 39.58 16.4613 39.732C16.3493 39.876 16.2933 40.076 16.2933 40.332C16.2933 40.5 16.3253 40.644 16.3893 40.764C16.4613 40.876 16.5493 40.968 16.6533 41.04C16.7653 41.112 16.8933 41.164 17.0373 41.196C17.1813 41.228 17.3333 41.244 17.4933 41.244C17.8293 41.244 18.1173 41.2 18.3573 41.112C18.5973 41.016 18.7933 40.9 18.9453 40.764C19.0973 40.62 19.2093 40.468 19.2813 40.308C19.3533 40.14 19.3893 39.984 19.3893 39.84V38.796ZM21.9946 35.796V42H23.0146V38.496C23.0146 38.216 23.0506 37.96 23.1226 37.728C23.2026 37.488 23.3186 37.28 23.4706 37.104C23.6226 36.928 23.8106 36.792 24.0346 36.696C24.2666 36.6 24.5386 36.552 24.8506 36.552C25.2426 36.552 25.5506 36.664 25.7746 36.888C25.9986 37.112 26.1106 37.416 26.1106 37.8V42H27.1306V37.92C27.1306 37.584 27.0946 37.28 27.0226 37.008C26.9586 36.728 26.8426 36.488 26.6746 36.288C26.5066 36.088 26.2866 35.932 26.0146 35.82C25.7426 35.708 25.4026 35.652 24.9946 35.652C24.0746 35.652 23.4026 36.028 22.9786 36.78H22.9546V35.796H21.9946ZM29.7425 34.68V33.432H28.7225V34.68H29.7425ZM28.7225 35.796V42H29.7425V35.796H28.7225ZM35.6307 38.304H32.0667C32.0827 38.064 32.1347 37.84 32.2227 37.632C32.3107 37.416 32.4307 37.228 32.5827 37.068C32.7347 36.908 32.9147 36.784 33.1227 36.696C33.3387 36.6 33.5787 36.552 33.8427 36.552C34.0987 36.552 34.3307 36.6 34.5387 36.696C34.7547 36.784 34.9387 36.908 35.0907 37.068C35.2507 37.22 35.3747 37.404 35.4627 37.62C35.5587 37.836 35.6147 38.064 35.6307 38.304ZM36.6147 40.032H35.6067C35.5187 40.44 35.3347 40.744 35.0547 40.944C34.7827 41.144 34.4307 41.244 33.9987 41.244C33.6627 41.244 33.3707 41.188 33.1227 41.076C32.8747 40.964 32.6707 40.816 32.5107 40.632C32.3507 40.44 32.2347 40.224 32.1627 39.984C32.0907 39.736 32.0587 39.476 32.0667 39.204H36.7107C36.7267 38.828 36.6907 38.432 36.6027 38.016C36.5227 37.6 36.3707 37.216 36.1467 36.864C35.9307 36.512 35.6387 36.224 35.2707 36C34.9107 35.768 34.4547 35.652 33.9027 35.652C33.4787 35.652 33.0867 35.732 32.7267 35.892C32.3747 36.052 32.0667 36.276 31.8027 36.564C31.5467 36.852 31.3467 37.192 31.2027 37.584C31.0587 37.976 30.9867 38.408 30.9867 38.88C31.0027 39.352 31.0707 39.788 31.1907 40.188C31.3187 40.588 31.5067 40.932 31.7547 41.22C32.0027 41.508 32.3067 41.732 32.6667 41.892C33.0347 42.052 33.4667 42.132 33.9627 42.132C34.6667 42.132 35.2507 41.956 35.7147 41.604C36.1787 41.252 36.4787 40.728 36.6147 40.032ZM37.732 35.796V42H38.752V39.24C38.752 38.84 38.792 38.488 38.872 38.184C38.952 37.872 39.08 37.608 39.256 37.392C39.432 37.176 39.664 37.012 39.952 36.9C40.24 36.788 40.588 36.732 40.996 36.732V35.652C40.444 35.636 39.988 35.748 39.628 35.988C39.268 36.228 38.964 36.6 38.716 37.104H38.692V35.796H37.732Z" fill="black"/>
<path d="M19 8V6C19 4.67392 19.5268 3.40215 20.4645 2.46447C21.4021 1.52678 22.6739 1 24 1C25.3261 1 26.5979 1.52678 27.5355 2.46447C28.4732 3.40215 29 4.67392 29 6V8H32C32.2652 8 32.5196 8.10536 32.7071 8.29289C32.8946 8.48043 33 8.73478 33 9V21C33 21.2652 32.8946 21.5196 32.7071 21.7071C32.5196 21.8946 32.2652 22 32 22H16C15.7348 22 15.4804 21.8946 15.2929 21.7071C15.1054 21.5196 15 21.2652 15 21V9C15 8.73478 15.1054 8.48043 15.2929 8.29289C15.4804 8.10536 15.7348 8 16 8H19ZM19 10H17V20H31V10H29V12H27V10H21V12H19V10ZM21 8H27V6C27 5.20435 26.6839 4.44129 26.1213 3.87868C25.5587 3.31607 24.7956 3 24 3C23.2044 3 22.4413 3.31607 21.8787 3.87868C21.3161 4.44129 21 5.20435 21 6V8Z" fill="#191919"/>
</svg>
