<svg width="43" height="44" viewBox="0 0 43 44" fill="none" xmlns="http://www.w3.org/2000/svg">
<path d="M27.2524 40.4808C35.1889 38.2297 41.0619 30.4374 41.0619 21.0867C41.0619 19.182 40.9031 17.4503 40.427 15.7187M35.6651 6.88749C32.3317 3.2511 27.7286 1 22.6492 1C17.5698 1 12.8079 3.2511 9.47461 6.88749" stroke="white" stroke-width="2" stroke-miterlimit="10" stroke-linecap="round" stroke-linejoin="round"/>
<path d="M4.71014 15.6744C4.23869 17.4038 4.08154 19.1333 4.08154 21.0357C4.08154 30.3748 9.89611 38.1574 17.7536 40.4057M30.6399 7.89176L35.6688 7.19997L35.0402 1.83862L30.6399 7.89176ZM29.3827 35.5632L27.0255 40.4057L31.4257 42.9999L29.3827 35.5632Z" stroke="white" stroke-width="2" stroke-miterlimit="10" stroke-linecap="round" stroke-linejoin="round"/>
<path d="M7.93378 19.4806L4.8521 15.2805L1 18.4726" stroke="white" stroke-width="2" stroke-miterlimit="10" stroke-linecap="round" stroke-linejoin="round"/>
</svg>
