<svg width="56" height="32" viewBox="0 0 56 32" fill="none" xmlns="http://www.w3.org/2000/svg">
<rect x="0.5" y="0.5" width="55" height="31" rx="3.5" stroke="#191919"/>
<path d="M20.632 22V12.688H17.208V10.576H26.568V12.688H23.144V22H20.632ZM37.5813 10.576V17.68C37.5813 19.1947 37.1546 20.3413 36.3013 21.12C35.4586 21.888 34.2586 22.272 32.7013 22.272C29.4586 22.272 27.8372 20.7413 27.8372 17.68V10.576H30.3493V17.68C30.3493 18.4373 30.4879 19.008 30.7653 19.392C31.1386 19.904 31.7839 20.16 32.7013 20.16C33.5759 20.16 34.1946 19.9573 34.5573 19.552C34.8986 19.1787 35.0693 18.5547 35.0693 17.68V10.576H37.5813Z" fill="#191919"/>
</svg>
