<svg width="42" height="42" viewBox="0 0 42 42" fill="none" xmlns="http://www.w3.org/2000/svg">
<path d="M41.8112 19.4909L20.4339 0.125679C20.1824 -0.125818 19.8052 -0.0629437 19.5537 0.188553L9.99681 10.7514C7.79621 8.92807 5.53273 7.35622 4.401 7.48197C4.08663 7.54484 3.77226 7.67059 3.58363 7.98496C3.45788 7.98496 3.39501 7.98496 3.26926 8.04784C2.51477 8.36221 2.4519 9.43107 2.4519 10.4999V15.5299C2.4519 15.8442 2.4519 16.2215 2.38902 16.5987C2.32615 17.5418 2.26327 18.5478 2.4519 19.1766L0.188423 21.6915C-0.0630738 21.943 -0.000199595 22.3203 0.251297 22.5718L3.70938 25.7155C3.39501 26.4071 3.45788 26.8472 3.45788 27.0359C3.52076 27.5389 3.83513 28.2305 4.84112 28.6077C6.0986 29.1107 7.41896 29.5508 8.36207 29.9281L21.5657 41.8742C21.6914 41.9999 21.8172 42.0628 22.0058 42.0628C22.1944 42.0628 22.3202 41.9999 22.4459 41.8742L41.8112 20.4969C42.0627 20.1197 42.0627 19.7424 41.8112 19.4909ZM17.4788 36.4041V29.4251C17.8561 29.3622 18.2333 29.1736 18.6106 28.8592C19.4908 28.1047 22.1315 27.2874 23.0746 27.0359L24.2064 26.7215L23.2633 25.967C23.2633 25.967 22.1315 24.961 20.6226 23.0748C19.8052 22.0059 18.4848 20.1197 17.4788 18.6107V18.3592C19.7423 19.1766 22.5088 19.8053 24.0178 19.8053C24.3321 19.8053 24.6465 19.7424 24.8351 19.6796C25.2124 19.5538 25.3381 19.3023 25.401 19.1137C25.5896 18.485 25.5267 17.4161 25.4639 16.473C25.4639 16.0957 25.401 15.7185 25.401 15.4041V10.3742C25.401 8.92807 25.0866 8.04784 24.395 7.85921C24.2693 7.79634 24.2064 7.79634 24.0806 7.79634C22.3202 7.10472 20.0567 7.98496 17.4788 10.3113L17.416 10.3742V4.33825L19.9309 1.50891L40.3651 19.9939L22.0058 40.491L17.4788 36.4041ZM5.28124 27.4131C4.84112 27.2245 4.71537 26.973 4.71537 26.7844V26.5329C4.71537 26.3442 4.77824 26.0927 4.90399 25.8412C4.96687 25.6526 5.09261 25.464 5.15549 25.2125C6.0986 23.452 8.42495 20.9999 10.6255 18.9251C11.0657 18.5478 11.5058 18.1706 11.883 17.7933C11.9459 17.7305 12.0088 17.7305 12.0717 17.6676C12.1974 17.5418 12.386 17.4161 12.5118 17.2904C12.4489 17.3532 12.3232 17.479 12.2603 17.6047C12.1345 17.7305 12.0088 17.9191 11.883 18.1077C11.4429 18.6736 11.0028 19.3023 10.6255 19.9939C10.5627 20.1197 10.4369 20.3083 10.3741 20.4341C10.2483 20.6227 10.1226 20.8742 10.0597 21.0628L9.68243 22.0059C9.36806 22.8862 9.24231 23.7664 9.30519 24.6466C9.36806 25.1496 9.49381 25.7155 9.55669 26.2814C9.74531 27.3502 9.99681 28.482 9.74531 29.0478C9.68243 29.0478 9.55669 28.985 9.49381 28.985C9.36806 28.9221 9.24231 28.9221 9.05369 28.8592C8.61357 28.7335 8.11058 28.5448 7.54471 28.3562C7.04172 28.1676 6.47585 27.979 5.97285 27.7904C5.72136 27.6017 5.53273 27.476 5.28124 27.4131ZM9.49381 12.0089C9.36806 11.946 9.24231 11.8203 9.05369 11.7574C8.99082 11.6945 8.86507 11.6317 8.80219 11.6317C7.29321 10.7514 5.90998 9.80831 5.21836 9.1167L4.96687 8.8652L4.90399 8.80233C5.72136 9.1167 7.29321 10.2484 9.11657 11.6945C9.24231 11.8203 9.36806 11.8832 9.49381 12.0089ZM24.2693 16.5987C24.3321 17.2275 24.395 18.1077 24.2693 18.6107C23.3261 18.7365 19.9938 17.982 17.4788 17.0389C17.0387 16.8502 16.5986 16.7245 16.2214 16.5359C16.2842 16.4101 16.2842 16.2215 16.2842 16.0329C16.2842 15.8442 16.2842 15.2784 16.2214 14.7125C16.5986 14.5239 16.9758 14.3353 17.4788 14.0209C19.7423 12.8263 23.0118 10.8772 23.892 9.61969C23.9549 9.49394 24.0178 9.43107 24.0806 9.30532C24.1435 9.55682 24.2064 9.93406 24.2064 10.4371V15.467C24.2064 15.7814 24.2064 16.1586 24.2693 16.5987ZM16.41 27.476C16.3471 27.4131 16.3471 27.2874 16.2842 27.0359C15.7184 25.3383 14.398 19.4281 14.8381 17.8562L15.3411 17.6047C15.5926 17.9191 15.907 18.4221 16.2842 19.0508C16.6615 19.6167 17.1016 20.2454 17.5417 20.9371C18.2962 22.0688 19.1136 23.2005 19.7423 23.955C20.5597 24.961 21.2513 25.7155 21.7543 26.2185C20.5597 26.5957 18.7363 27.2874 17.8561 27.979C17.7303 28.0418 17.6675 28.1047 17.5417 28.1676C17.416 28.2305 17.2902 28.2305 17.2273 28.2305C16.9758 28.1676 16.7243 28.0418 16.41 27.476ZM10.8142 25.967C10.7513 25.5898 10.6255 25.1496 10.6255 24.7724C10.6255 24.6466 10.5627 24.5838 10.5627 24.458C10.4998 24.0808 10.5627 23.7035 10.6255 23.2634C10.8142 22.2574 11.3172 21.1886 11.883 20.2454C12.1974 19.7424 12.5118 19.3023 12.8261 18.9251C12.5746 20.3083 12.2603 21.8802 11.883 23.3263C11.5687 24.5209 11.3172 25.6526 11.0028 26.6586C10.877 26.47 10.8142 26.2185 10.8142 25.967ZM13.0776 14.0838C13.0776 14.0838 13.1405 14.0838 13.2034 14.0209C13.2663 14.0209 13.4549 13.958 13.6435 13.958H14.8381C14.8381 14.0209 14.8381 14.0838 14.901 14.1466C14.901 14.2095 14.901 14.2724 14.9639 14.3353C14.9639 14.3981 15.0267 14.5239 15.0267 14.6496C15.0267 14.7125 15.0267 14.7754 15.0896 14.9011C15.0896 15.0269 15.1525 15.1526 15.1525 15.3412C15.1525 15.5299 15.2154 15.7185 15.2154 15.9071V16.2215C15.1525 16.2844 14.9639 16.2844 14.7752 16.2844C14.6495 16.2844 14.4609 16.2844 14.3351 16.2215C14.1465 16.2215 13.9579 16.1586 13.8321 16.1586C13.7693 16.1586 13.7064 16.1586 13.6435 16.0957H13.5806C13.392 16.0329 13.2663 16.0329 13.1405 16.0329V15.6556V15.3412V15.2155V15.1526V14.6496V14.5239V14.3353C13.0776 14.2724 13.0776 14.1466 13.0776 14.0838ZM17.4788 12.5748C17.1645 12.7634 16.8501 12.8892 16.5986 13.0778C16.913 12.7634 17.1645 12.449 17.4788 12.1347C19.1136 10.4999 21.1255 8.92807 22.8232 8.92807C22.2573 9.74544 19.8681 11.2544 17.4788 12.5748ZM16.2214 11.6317C15.8441 12.0089 15.4669 12.449 15.1525 12.7634H14.901C13.9579 12.7005 13.0776 12.7005 12.5118 13.0149C12.2603 12.8263 12.0717 12.6377 11.8202 12.3862V10.6257L16.2214 5.78436V11.6317ZM3.58363 16.5987C3.58363 16.1586 3.64651 15.7814 3.64651 15.467V10.4371C3.64651 9.87119 3.64651 9.55682 3.70938 9.36819C3.77226 9.43107 3.898 9.49394 4.02375 9.68257C4.71537 10.4999 6.47585 11.6945 8.23633 12.7005C8.42495 12.8263 8.61357 12.952 8.80219 13.0149C8.99082 13.1407 9.17944 13.2035 9.36806 13.3293C9.80818 13.5808 10.2483 13.8323 10.6255 14.0209C11.1285 14.2724 11.5058 14.5239 11.883 14.7125V15.0898C11.883 15.5299 11.8202 15.9071 11.883 16.2215C11.6944 16.3472 11.5687 16.473 11.38 16.6616C11.1285 16.7874 10.9399 16.8502 10.6884 16.976C8.73932 17.7305 6.22435 18.3592 4.71537 18.5478C4.33812 18.6107 4.02375 18.6107 3.83513 18.6107H3.70938C3.70938 18.4221 3.64651 18.1706 3.64651 17.8562C3.58363 17.4161 3.58363 16.976 3.58363 16.5987ZM3.45788 19.8053H3.77226C4.96687 19.8053 6.91597 19.4281 8.80219 18.8622C6.28722 21.2514 4.90399 23.0748 4.21237 24.3951L1.50878 22.0059L3.45788 19.8053ZM11.8202 27.9161C12.5746 25.967 13.2034 23.2634 13.6435 20.9999C14.0208 24.0179 15.0267 27.6017 15.2782 28.1047C15.5926 28.6077 15.8441 28.9221 16.2214 29.1736V35.3353L11.8202 31.3742V27.9161Z" fill="white"/>
</svg>